<?xml version="1.0" encoding="UTF-8"?>
<!-- Generator: visioncortex VTracer 0.6.3 -->
<svg version="1.1" xmlns="http://www.w3.org/2000/svg" width="1280" height="1219">
<path d="M0 0 C1.18 -0 1.18 -0 2.38 -0.01 C5.03 -0.01 7.67 -0.01 10.32 -0.01 C12.23 -0.01 14.14 -0.01 16.05 -0.02 C21.32 -0.03 26.58 -0.03 31.84 -0.03 C37.51 -0.03 43.18 -0.04 48.85 -0.04 C61.26 -0.06 73.66 -0.06 86.07 -0.07 C93.81 -0.07 101.56 -0.08 109.3 -0.08 C130.73 -0.09 152.17 -0.1 173.6 -0.11 C174.99 -0.11 176.37 -0.11 177.76 -0.11 C179.15 -0.11 180.54 -0.11 181.93 -0.11 C184.71 -0.11 187.5 -0.11 190.29 -0.11 C190.98 -0.11 191.67 -0.11 192.38 -0.11 C214.79 -0.11 237.2 -0.13 259.61 -0.15 C283.3 -0.18 307 -0.19 330.69 -0.19 C343.6 -0.19 356.52 -0.2 369.43 -0.22 C380.43 -0.23 391.43 -0.24 402.42 -0.23 C408.03 -0.22 413.64 -0.23 419.26 -0.24 C424.39 -0.25 429.53 -0.25 434.67 -0.24 C436.52 -0.24 438.38 -0.24 440.24 -0.25 C461.44 -0.34 461.44 -0.34 470.16 6.13 C470.16 6.79 470.16 7.45 470.16 8.13 C470.74 8.34 471.32 8.54 471.91 8.76 C476.75 11.71 479.68 17.75 481.16 23.13 C481.61 27.66 481.57 32.18 481.55 36.73 C481.56 38.12 481.56 39.51 481.57 40.9 C481.58 44.72 481.58 48.53 481.57 52.35 C481.57 56.47 481.58 60.59 481.59 64.71 C481.61 72.79 481.61 80.86 481.6 88.93 C481.6 95.5 481.6 102.07 481.6 108.64 C481.6 109.58 481.61 110.51 481.61 111.48 C481.61 113.38 481.61 115.28 481.61 117.18 C481.62 135.03 481.62 152.87 481.61 170.71 C481.6 186.99 481.61 203.27 481.63 219.55 C481.66 236.29 481.67 253.04 481.66 269.78 C481.66 279.17 481.66 288.56 481.68 297.95 C481.69 305.95 481.69 313.95 481.68 321.96 C481.67 326.03 481.67 330.1 481.68 334.18 C481.81 370.59 476.12 403.62 455.16 434.13 C454.54 435.06 453.91 435.98 453.27 436.93 C448.79 443.33 443.82 448.76 438.16 454.13 C437.34 454.98 436.51 455.82 435.66 456.69 C433.34 458.96 430.99 461.19 428.6 463.38 C427.49 464.41 427.49 464.41 426.35 465.46 C424.2 467.11 422.81 467.72 420.16 468.13 C420.16 468.79 420.16 469.45 420.16 470.13 C418.24 471.76 416.32 473.27 414.29 474.76 C413.73 475.18 413.18 475.6 412.6 476.03 C408.43 479.13 408.43 479.13 406.16 479.13 C406.16 479.79 406.16 480.45 406.16 481.13 C404.25 482.69 404.25 482.69 401.54 484.57 C397.13 487.69 392.83 490.9 388.6 494.26 C387.41 495.2 386.21 496.14 385.02 497.09 C384.09 497.83 384.09 497.83 383.13 498.58 C379.57 501.38 375.99 504.16 372.41 506.94 C371.66 507.53 370.9 508.12 370.13 508.72 C367.03 511.13 363.93 513.54 360.83 515.94 C358.53 517.73 356.22 519.53 353.91 521.32 C352.8 522.19 352.8 522.19 351.66 523.07 C348.15 525.8 344.65 528.53 341.17 531.28 C340.54 531.77 339.92 532.27 339.27 532.78 C338.13 533.68 336.98 534.59 335.84 535.49 C324.91 544.13 324.91 544.13 322.16 544.13 C321.83 545.12 321.5 546.11 321.16 547.13 C318.73 549.17 318.73 549.17 315.73 551.32 C314.24 552.39 314.24 552.39 312.73 553.49 C310.16 555.13 310.16 555.13 308.16 555.13 C308.16 555.79 308.16 556.45 308.16 557.13 C306.57 558.55 306.57 558.55 304.32 560.19 C303.49 560.8 302.67 561.4 301.82 562.03 C300.92 562.68 300.02 563.33 299.1 564.01 C293.37 568.22 287.7 572.44 282.26 577.02 C267.39 589.45 248.87 598.65 229.16 599.13 C228.03 599.19 228.03 599.19 226.87 599.25 C202.59 599.96 182.84 590.4 164.28 575.8 C162.12 574.1 159.95 572.42 157.78 570.74 C154 567.81 150.23 564.87 146.46 561.93 C143.38 559.52 140.29 557.12 137.21 554.72 C130.62 549.61 124.04 544.47 117.48 539.31 C111.28 534.43 105.06 529.6 98.83 524.76 C95.68 522.32 92.54 519.86 89.4 517.41 C87.84 516.19 86.28 514.97 84.73 513.76 C83.61 512.88 83.61 512.88 82.46 511.99 C77.39 508.04 72.23 504.24 66.94 500.58 C66.35 500.11 65.77 499.63 65.16 499.13 C65.16 498.47 65.16 497.81 65.16 497.13 C64.44 496.87 63.71 496.62 62.96 496.35 C60.04 495.08 57.85 493.59 55.35 491.63 C54.56 491.02 53.77 490.41 52.96 489.79 C52.36 489.24 51.77 488.69 51.16 488.13 C51.16 487.47 51.16 486.81 51.16 486.13 C50.13 485.79 50.13 485.79 49.07 485.44 C45.52 483.84 42.72 481.63 39.73 479.19 C38.48 478.2 37.24 477.2 36 476.21 C35.36 475.7 34.73 475.19 34.08 474.66 C32.23 473.18 30.36 471.72 28.49 470.28 C7.89 454.34 7.89 454.34 0.16 444.13 C0.16 443.47 0.16 442.81 0.16 442.13 C-0.5 442.13 -1.16 442.13 -1.84 442.13 C-3.46 440.02 -4.94 437.92 -6.4 435.69 C-6.84 435.02 -7.28 434.35 -7.74 433.66 C-15.41 421.79 -21.59 409.64 -25.84 396.13 C-26.26 394.83 -26.26 394.83 -26.7 393.5 C-31.25 379.04 -32.99 365.25 -32.98 350.15 C-32.98 348.74 -32.98 347.33 -32.99 345.92 C-32.99 342.07 -33 338.21 -33 334.36 C-33 330.2 -33.01 326.03 -33.01 321.87 C-33.03 312.78 -33.03 303.68 -33.04 294.59 C-33.04 288.91 -33.04 283.23 -33.05 277.56 C-33.06 261.83 -33.07 246.1 -33.07 230.37 C-33.07 229.37 -33.07 228.36 -33.07 227.33 C-33.08 226.32 -33.08 225.31 -33.08 224.27 C-33.08 222.23 -33.08 220.19 -33.08 218.15 C-33.08 217.13 -33.08 216.12 -33.08 215.08 C-33.08 198.65 -33.1 182.22 -33.12 165.79 C-33.15 148.91 -33.16 132.04 -33.16 115.16 C-33.16 105.69 -33.17 96.22 -33.18 86.75 C-33.2 78.69 -33.2 70.63 -33.2 62.57 C-33.19 58.45 -33.19 54.34 -33.21 50.23 C-33.22 46.46 -33.22 42.7 -33.21 38.93 C-33.2 36.93 -33.22 34.92 -33.23 32.92 C-33.17 23.14 -31.43 15.72 -24.23 8.53 C-16.72 1.81 -9.93 -0.02 0 0 Z M-1.09 36.98 C-7.47 44.86 -8.57 54.09 -8.44 63.87 C-8.45 65.1 -8.45 66.33 -8.46 67.59 C-8.47 70.96 -8.45 74.32 -8.43 77.69 C-8.41 81.33 -8.42 84.98 -8.43 88.62 C-8.43 95.74 -8.41 102.86 -8.39 109.99 C-8.35 118.28 -8.35 126.57 -8.35 134.87 C-8.34 149.66 -8.31 164.45 -8.27 179.25 C-8.23 193.6 -8.2 207.96 -8.19 222.32 C-8.19 223.21 -8.19 224.09 -8.18 225 C-8.18 228.57 -8.18 232.13 -8.18 235.69 C-8.16 251.02 -8.14 266.36 -8.11 281.69 C-8.11 284.18 -8.11 286.66 -8.1 289.15 C-8.09 297.84 -8.07 306.53 -8.05 315.22 C-8.04 318.81 -8.03 322.4 -8.02 326 C-8.02 329.88 -8 333.77 -7.99 337.66 C-7.99 338.8 -7.99 339.95 -7.99 341.13 C-7.98 342.16 -7.98 343.2 -7.97 344.26 C-7.97 345.16 -7.97 346.06 -7.97 346.99 C-7.97 349.18 -7.97 349.18 -6.84 351.13 C-6.63 352.65 -6.47 354.17 -6.33 355.69 C-4.95 369.15 -2.2 380.73 3.16 393.13 C3.46 393.86 3.76 394.59 4.07 395.34 C13.59 418.39 30.52 436.19 50.16 451.13 C54.66 454.57 59.08 458.02 63.29 461.82 C66.11 464.33 68.87 466.14 72.24 467.89 C75.82 470.19 78.78 473.27 81.83 476.21 C84.07 478.06 85.33 478.75 88.16 479.13 C88.16 479.79 88.16 480.45 88.16 481.13 C89.94 482.74 89.94 482.74 92.23 484.38 C95.77 487.05 99.16 489.81 102.46 492.77 C104.2 494.22 104.2 494.22 106.46 495.49 C110.33 497.84 113.8 500.66 117.35 503.46 C119.82 505.39 122.27 507.19 124.96 508.8 C127.16 510.13 127.16 510.13 128.85 512.38 C131.65 515.71 134.77 517.74 138.35 520.15 C142.4 523.01 146.14 526.2 149.91 529.41 C151.96 531.33 151.96 531.33 154.16 531.13 C154.49 532.12 154.82 533.11 155.16 534.13 C156.8 535.18 158.47 536.17 160.16 537.13 C161.73 538.33 163.27 539.56 164.79 540.82 C176.27 551.24 176.27 551.24 190.16 556.13 C190.16 556.79 190.16 557.45 190.16 558.13 C205.84 564.68 222.55 567.39 239.16 563.13 C240.29 562.85 241.42 562.57 242.58 562.28 C249.74 560.39 255.94 558.14 262.16 554.13 C262.78 553.76 263.4 553.38 264.04 552.99 C265.46 552.11 266.82 551.13 268.16 550.13 C268.16 549.47 268.16 548.81 268.16 548.13 C269.26 547.75 269.26 547.75 270.37 547.36 C273.32 546.06 275.37 544.56 277.85 542.51 C278.72 541.8 279.58 541.09 280.48 540.35 C281.36 539.62 282.25 538.89 283.16 538.13 C284.89 536.73 286.62 535.34 288.35 533.94 C289.17 533.29 289.98 532.63 290.82 531.96 C292.93 530.31 295.08 528.77 297.29 527.26 C298.24 526.56 299.19 525.85 300.16 525.13 C300.16 524.47 300.16 523.81 300.16 523.13 C301.26 522.75 301.26 522.75 302.37 522.36 C305.32 521.06 307.37 519.56 309.85 517.51 C310.72 516.79 311.59 516.08 312.48 515.35 C313.37 514.62 314.25 513.88 315.16 513.13 C316.85 511.77 318.54 510.42 320.23 509.07 C321.05 508.41 321.88 507.74 322.74 507.06 C343.78 490.32 343.78 490.32 348.16 488.13 C348.16 487.47 348.16 486.81 348.16 486.13 C349.15 485.8 350.14 485.47 351.16 485.13 C351.16 484.47 351.16 483.81 351.16 483.13 C352.26 482.75 352.26 482.75 353.38 482.35 C356.3 481.07 358.29 479.61 360.73 477.57 C364.53 474.44 368.39 471.44 372.35 468.51 C376.12 465.7 379.73 462.84 383.25 459.73 C386.81 456.76 390.57 454.04 394.3 451.28 C395.72 450.22 395.72 450.22 397.16 449.13 C398.58 448.07 398.58 448.07 400.03 446.98 C400.73 446.37 401.44 445.76 402.16 445.13 C402.16 444.47 402.16 443.81 402.16 443.13 C402.91 442.87 403.65 442.62 404.42 442.35 C407.29 441.08 408.9 439.78 411.12 437.58 C411.82 436.88 412.52 436.18 413.24 435.46 C413.96 434.74 414.68 434.01 415.41 433.26 C416.51 432.18 416.51 432.18 417.63 431.07 C418.33 430.37 419.02 429.67 419.74 428.95 C420.37 428.32 421.01 427.68 421.66 427.02 C423.25 425.03 423.76 423.63 424.16 421.13 C424.82 421.13 425.48 421.13 426.16 421.13 C428.35 418.3 430.09 415.14 431.91 412.07 C432.46 411.16 433 410.25 433.56 409.31 C437.94 401.79 441.36 394.37 444.16 386.13 C444.55 385.02 444.94 383.92 445.34 382.78 C447.52 376.15 448.87 369.64 449.77 362.71 C450.16 360.13 450.16 360.13 451.16 358.13 C452.87 344.5 452.32 330.55 452.32 316.85 C452.33 313.3 452.33 309.75 452.34 306.19 C452.35 298.45 452.36 290.72 452.36 282.98 C452.37 278.14 452.37 273.3 452.38 268.46 C452.39 255.04 452.4 241.62 452.4 228.2 C452.4 227.35 452.4 226.49 452.4 225.61 C452.4 224.75 452.4 223.89 452.4 223.01 C452.4 221.27 452.4 219.53 452.4 217.79 C452.4 216.93 452.4 216.07 452.4 215.18 C452.41 201.19 452.43 187.2 452.45 173.2 C452.47 158.81 452.49 144.41 452.49 130.02 C452.49 121.95 452.49 113.88 452.51 105.81 C452.53 98.94 452.53 92.08 452.52 85.21 C452.52 81.71 452.52 78.21 452.53 74.72 C452.55 70.92 452.54 67.12 452.53 63.32 C452.54 62.22 452.55 61.12 452.56 59.99 C452.5 50.59 450.95 42.28 444.91 34.82 C439.08 29.17 432.02 28.01 424.2 28 C423.5 27.99 422.79 27.99 422.07 27.99 C419.7 27.98 417.33 27.98 414.96 27.98 C413.24 27.98 411.53 27.98 409.82 27.97 C405.11 27.96 400.39 27.96 395.68 27.96 C390.59 27.95 385.51 27.94 380.43 27.93 C368.16 27.91 355.88 27.9 343.6 27.9 C337.82 27.89 332.05 27.89 326.27 27.88 C307.06 27.86 287.84 27.85 268.63 27.84 C263.65 27.84 258.66 27.84 253.68 27.84 C252.44 27.84 251.2 27.84 249.92 27.83 C229.84 27.83 209.77 27.8 189.69 27.77 C169.08 27.74 148.47 27.72 127.86 27.71 C116.29 27.71 104.71 27.7 93.14 27.68 C83.28 27.66 73.43 27.65 63.57 27.66 C58.55 27.66 53.52 27.66 48.49 27.64 C43.88 27.62 39.28 27.62 34.67 27.64 C33.01 27.64 31.35 27.64 29.68 27.63 C17.94 27.55 7.83 28.51 -1.09 36.98 Z " fill="#1D2059" transform="translate(409.8365592956543,122.86857223510742)"/>
<path d="M0 0 C1.11 -0.05 1.11 -0.05 2.25 -0.1 C5.74 -0.13 7.72 0.03 10.39 2.34 C12.95 6.75 12.73 10.47 12.68 15.48 C12.68 16.5 12.68 17.52 12.69 18.57 C12.7 21.99 12.68 25.41 12.66 28.83 C12.66 31.28 12.66 33.73 12.66 36.18 C12.67 42.15 12.66 48.12 12.63 54.08 C12.61 61.03 12.61 67.98 12.6 74.92 C12.6 87.31 12.58 99.7 12.54 112.09 C12.51 124.12 12.49 136.15 12.48 148.18 C12.48 148.92 12.48 149.66 12.48 150.42 C12.48 153.4 12.48 156.38 12.48 159.36 C12.47 170.82 12.45 182.27 12.43 193.73 C12.43 197.19 12.42 200.66 12.42 204.12 C12.41 212.02 12.4 219.91 12.37 227.81 C12.37 230.21 12.36 232.6 12.36 235 C12.36 238.26 12.35 241.52 12.33 244.78 C12.33 245.74 12.34 246.7 12.34 247.69 C12.33 248.99 12.33 248.99 12.32 250.32 C12.32 251.45 12.32 251.45 12.32 252.6 C12.19 254.44 12.19 254.44 11.19 256.44 C11.02 257.77 10.89 259.1 10.79 260.44 C9.72 273.44 7.91 283.3 -0.81 293.44 C-1.31 294.06 -1.82 294.67 -2.33 295.31 C-7.86 301.55 -15.66 305.02 -23.88 306.25 C-37.44 306.9 -37.44 306.9 -41.81 305.44 C-44.81 299.21 -45.45 293.28 -45.81 286.44 C-49.06 287.89 -51.4 289.72 -54.06 292.06 C-60.66 297.46 -68.14 300.83 -75.81 304.44 C-76.51 304.81 -77.2 305.18 -77.91 305.57 C-92.33 312.18 -112.42 311.78 -127.81 309.44 C-128.14 309.11 -128.47 308.78 -128.81 308.44 C-131 308.07 -133.19 307.72 -135.38 307.38 C-147.79 305.13 -158.64 298.69 -168.81 291.44 C-170 290.68 -171.19 289.93 -172.38 289.19 C-173.18 288.61 -173.98 288.03 -174.81 287.44 C-174.81 286.78 -174.81 286.12 -174.81 285.44 C-175.8 285.11 -176.79 284.78 -177.81 284.44 C-180 282.5 -180 282.5 -181.81 280.44 C-181.81 279.78 -181.81 279.12 -181.81 278.44 C-182.8 278.11 -183.79 277.78 -184.81 277.44 C-187.46 275.11 -188.68 273.82 -189.81 270.44 C-191.13 269.08 -192.46 267.75 -193.81 266.44 C-203.74 253.92 -211.16 238.34 -213.45 222.48 C-213.61 220.45 -213.61 220.45 -214.81 219.44 C-216.18 211.56 -215.96 203.47 -215.94 195.5 C-215.94 194.3 -215.95 193.1 -215.95 191.87 C-215.94 182.15 -215.8 172.75 -212.81 163.44 C-212.33 161.63 -211.85 159.81 -211.38 158 C-207.14 142.61 -199.7 125.41 -187.81 114.44 C-186.82 113.28 -185.84 112.11 -184.88 110.94 C-182.12 107.67 -179.15 105.11 -175.81 102.44 C-175.36 101.97 -174.9 101.5 -174.43 101.01 C-167.31 94.1 -157.9 89.17 -148.81 85.44 C-147.79 84.95 -146.76 84.46 -145.71 83.95 C-141.28 82.05 -136.75 81.46 -132 80.81 C-130.31 80.57 -128.61 80.33 -126.92 80.09 C-126.18 79.98 -125.44 79.88 -124.67 79.78 C-122.73 79.51 -122.73 79.51 -120.81 78.44 C-111.3 78.01 -102.06 77.99 -92.81 80.44 C-91.44 80.71 -91.44 80.71 -90.04 80.99 C-78.56 83.43 -68.55 89.06 -58.81 95.44 C-57.07 96.58 -55.32 97.7 -53.56 98.81 C-52.75 99.34 -51.94 99.86 -51.11 100.4 C-48.41 101.62 -47.56 101.27 -44.81 100.44 C-44.82 99.66 -44.83 98.89 -44.84 98.09 C-44.92 90.73 -44.98 83.38 -45.02 76.03 C-45.04 72.25 -45.07 68.47 -45.11 64.69 C-45.16 61.03 -45.18 57.37 -45.19 53.72 C-45.2 52.33 -45.21 50.94 -45.24 49.56 C-45.45 35.23 -42.18 23.52 -32.81 12.44 C-29.66 9.73 -26.39 7.53 -22.81 5.44 C-21.97 4.91 -21.12 4.38 -20.25 3.83 C-14.02 0.27 -7 0.18 0 0 Z M-140.39 146.05 C-141.57 147.48 -142.69 148.96 -143.81 150.44 C-144.28 150.89 -144.75 151.34 -145.23 151.8 C-151.56 158.34 -155.2 166.86 -157.81 175.44 C-158.17 176.45 -158.53 177.46 -158.9 178.5 C-160.38 183.77 -160.14 189.2 -160.12 194.62 C-160.14 195.69 -160.16 196.75 -160.17 197.84 C-160.18 208.03 -158.46 217.41 -153.38 226.31 C-152.51 227.86 -152.51 227.86 -151.63 229.43 C-147.65 236.02 -143.74 240.61 -137.81 245.44 C-137.21 245.97 -136.6 246.49 -135.97 247.04 C-128.93 252.85 -120.03 256.91 -110.81 256.44 C-110.48 257.1 -110.15 257.76 -109.81 258.44 C-92.61 259.23 -77.39 258.25 -63.81 246.44 C-62.89 245.64 -61.96 244.85 -61.01 244.04 C-49.26 233.2 -42.55 218.39 -41.7 202.35 C-41.47 193.55 -41.4 184.97 -43.81 176.44 C-44.06 175.44 -44.3 174.44 -44.55 173.41 C-47.38 162.9 -52.22 152.31 -61.17 145.68 C-62.81 144.44 -62.81 144.44 -64.6 142.51 C-67.34 139.95 -70.14 138.49 -73.5 136.81 C-74.66 136.22 -75.82 135.63 -77.01 135.02 C-84.5 131.66 -92.07 131.07 -100.19 131.12 C-101.11 131.13 -102.03 131.13 -102.99 131.14 C-116.54 131.36 -130.68 136.1 -140.39 146.05 Z " fill="#1D2059" transform="translate(1026.8125,744.5625)"/>
<path d="M0 0 C0.96 -0 1.91 -0.01 2.89 -0.01 C12 0 20.78 0.3 29.5 3.12 C30.8 3.48 32.11 3.83 33.41 4.17 C43 6.78 51.95 9.95 60.5 15.12 C60.83 15.78 61.16 16.45 61.5 17.12 C62.63 17.64 63.77 18.16 64.94 18.69 C70.68 21.46 74.95 25.73 79.5 30.12 C80.32 30.92 81.15 31.72 82 32.54 C85.75 36.22 89.39 39.87 92.5 44.12 C93.26 45.13 93.26 45.13 94.04 46.16 C102.09 57.1 108.44 69.83 111.62 83.06 C111.79 83.73 111.96 84.39 112.14 85.08 C115.98 100.69 114.5 115.67 114.5 132.12 C57.08 132.46 -0.34 132.78 -59.5 133.12 C-58.02 139.79 -56.61 144.57 -53.5 150.38 C-52.79 151.73 -52.08 153.09 -51.38 154.45 C-50.88 155.4 -50.88 155.4 -50.38 156.36 C-49.5 158.12 -49.5 158.12 -48.36 161.05 C-47.23 163.76 -46.13 163.92 -43.5 165.12 C-41.83 166.79 -40.17 168.46 -38.5 170.12 C-23.18 180.02 -3.25 183.69 14.69 180.31 C16.29 179.92 17.9 179.53 19.5 179.12 C20.88 178.87 20.88 178.87 22.29 178.61 C29.24 177.19 34.5 174.59 40.49 170.98 C45.13 168.22 49.13 166.59 54.5 166.12 C55.19 166.05 55.88 165.97 56.59 165.88 C66.03 165.3 75.16 169.03 83.1 173.83 C87.13 176 91.46 177.41 95.78 178.91 C98.5 180.12 98.5 180.12 100.5 183.12 C99.57 192.31 87.97 201.28 81.5 207.12 C79.52 208.5 77.53 209.83 75.5 211.12 C73.87 212.29 72.25 213.45 70.62 214.62 C56.53 224.48 39.97 229.18 22.94 230.25 C20.81 230.39 18.68 230.54 16.56 230.7 C15.63 230.75 14.71 230.81 13.76 230.88 C11.47 231 11.47 231 9.5 232.12 C7.34 232.22 5.17 232.25 3 232.25 C1.83 232.25 0.67 232.26 -0.53 232.26 C-3.5 232.12 -3.5 232.12 -5.5 231.12 C-7.05 230.96 -8.61 230.85 -10.16 230.77 C-29.63 229.51 -45.7 224.96 -62.56 215 C-63.33 214.56 -64.1 214.12 -64.9 213.66 C-65.62 213.23 -66.35 212.81 -67.1 212.37 C-67.75 211.98 -68.41 211.6 -69.08 211.21 C-69.78 210.67 -69.78 210.67 -70.5 210.12 C-70.5 209.46 -70.5 208.81 -70.5 208.12 C-71.18 207.92 -71.86 207.71 -72.56 207.5 C-81.01 203.55 -89.02 194.71 -92.76 186.29 C-93.01 185.57 -93.25 184.86 -93.5 184.12 C-94.16 184.12 -94.82 184.12 -95.5 184.12 C-101.69 175.05 -106.95 164.97 -109.88 154.37 C-110.39 152.54 -110.99 150.73 -111.62 148.94 C-112.63 145.69 -113.04 142.49 -113.5 139.12 C-113.83 138.79 -114.16 138.47 -114.5 138.12 C-116.6 122.1 -116.62 104.83 -112.5 89.12 C-112.16 87.8 -112.16 87.8 -111.81 86.44 C-109.41 77.4 -106.72 68.93 -102.25 60.69 C-101.85 59.95 -101.45 59.2 -101.04 58.44 C-92.96 43.67 -82.19 31.01 -68.5 21.12 C-67.45 20.35 -67.45 20.35 -66.37 19.55 C-55.85 12.15 -43.33 5.71 -30.62 3.5 C-26.2 3.05 -26.2 3.05 -22.5 1.12 C-15.05 0.02 -7.51 -0.03 0 0 Z M-45.5 68.12 C-48.04 71.34 -50.32 74.66 -52.5 78.12 C-52.95 78.81 -53.39 79.5 -53.86 80.21 C-55.14 82.22 -55.14 82.22 -56.5 85.12 C-56.17 86.12 -55.84 87.11 -55.5 88.12 C-17.88 88.12 19.74 88.12 58.5 88.12 C57.63 83.79 56.63 80.95 54.69 77.06 C54.19 76.04 53.68 75.02 53.17 73.96 C51.53 71.18 49.96 69.21 47.5 67.12 C46.84 67.12 46.18 67.12 45.5 67.12 C45.25 66.54 45 65.95 44.75 65.34 C40.56 57.9 31.11 54.04 23.5 51.12 C22.71 50.8 21.91 50.48 21.09 50.15 C-1.94 42.32 -29.28 50.46 -45.5 68.12 Z " fill="#1D2059" transform="translate(683.5,825.875)"/>
<path d="M0 0 C1.32 -0 1.32 -0 2.66 -0 C4.51 -0 6.36 -0 8.21 0 C11.05 0.01 13.89 0 16.73 -0 C18.53 -0 20.33 -0 22.12 0 C22.98 -0 23.83 -0 24.71 -0.01 C30.68 0.02 30.68 0.02 31.8 1.13 C31.9 3.66 31.93 6.16 31.92 8.69 C31.93 9.49 31.93 10.3 31.93 11.12 C31.93 13.83 31.93 16.54 31.93 19.24 C31.93 21.18 31.93 23.11 31.93 25.04 C31.94 30.32 31.93 35.59 31.93 40.86 C31.93 46.38 31.93 51.9 31.93 57.42 C31.93 66.71 31.93 76.01 31.93 85.3 C31.92 96.01 31.92 106.71 31.93 117.42 C31.93 126.63 31.93 135.83 31.93 145.04 C31.93 150.53 31.93 156.02 31.93 161.51 C31.94 166.69 31.93 171.87 31.93 177.05 C31.93 178.94 31.93 180.83 31.93 182.72 C31.94 191.75 31.85 200.75 31.35 209.77 C31.31 210.49 31.27 211.2 31.23 211.94 C30.92 216.88 30.92 216.88 29.8 219.13 C29.6 220.53 29.45 221.94 29.33 223.35 C29.26 224.2 29.18 225.04 29.1 225.91 C28.98 227.26 28.98 227.26 28.86 228.63 C28.28 234.81 27.67 240.88 26.28 246.94 C25.76 249.17 25.76 249.17 25.44 251.61 C22.93 268.62 14.32 284.41 5.8 299.13 C5.14 299.13 4.48 299.13 3.8 299.13 C3.54 299.87 3.29 300.6 3.03 301.36 C0.77 306.46 -3.38 310.15 -7.2 314.13 C-7.77 314.73 -8.34 315.33 -8.93 315.94 C-16.15 323.47 -23.2 330.73 -32.2 336.13 C-32.79 336.49 -33.38 336.85 -33.98 337.22 C-35.7 338.23 -37.45 339.18 -39.2 340.13 C-40.02 340.61 -40.85 341.08 -41.69 341.57 C-58.64 351.18 -58.64 351.18 -67.2 350.13 C-69.4 348.38 -69.4 348.38 -71.33 346.01 C-72.01 345.18 -72.69 344.36 -73.39 343.5 C-75.46 340.79 -77.33 337.98 -79.2 335.13 C-80.91 333.14 -82.65 331.19 -84.42 329.26 C-86.2 327.13 -86.2 327.13 -88.04 324.32 C-90.98 319.99 -94.41 316.17 -97.87 312.26 C-100.7 309.01 -103 305.85 -105.2 302.13 C-107.3 299.58 -109.44 297.08 -111.62 294.59 C-114.2 291.59 -115.97 288.91 -117.2 285.13 C-117.86 285.13 -118.52 285.13 -119.2 285.13 C-120.53 283.74 -120.53 283.74 -121.89 281.88 C-122.58 280.98 -122.58 280.98 -123.28 280.05 C-124.44 277.63 -123.95 276.64 -123.2 274.13 C-122.01 274.08 -120.81 274.03 -119.58 273.98 C-101.23 273.16 -87.47 270.02 -74.2 256.13 C-63.94 244.55 -60.07 232.36 -59.08 217.07 C-58.93 215.02 -58.79 212.96 -58.63 210.91 C-58.57 210.02 -58.51 209.12 -58.45 208.2 C-58.2 206.13 -58.2 206.13 -57.2 205.13 C-57.1 203.17 -57.07 201.2 -57.06 199.23 C-57.05 197.95 -57.04 196.67 -57.04 195.35 C-57.03 193.91 -57.03 192.48 -57.03 191.04 C-57.02 189.54 -57.02 188.04 -57.01 186.54 C-56.99 183.3 -56.98 180.05 -56.97 176.81 C-56.96 171.68 -56.93 166.55 -56.91 161.42 C-56.84 146.82 -56.78 132.22 -56.73 117.63 C-56.7 109.57 -56.66 101.52 -56.62 93.46 C-56.59 88.37 -56.58 83.28 -56.56 78.18 C-56.55 75 -56.54 71.81 -56.52 68.63 C-56.51 67.16 -56.51 65.7 -56.51 64.23 C-56.5 47.86 -53.69 35.56 -44.2 22.13 C-43.54 21.04 -42.88 19.95 -42.2 18.82 C-39.84 15.64 -37.59 14.2 -34.2 12.13 C-32.62 10.97 -31.04 9.8 -29.45 8.63 C-20.12 2.08 -11.21 -0.03 0 0 Z M-57.2 206.13 C-56.2 210.13 -56.2 210.13 -56.2 210.13 Z M-123.2 275.13 C-123.2 275.46 -123.2 275.79 -123.2 276.13 C-120.23 276.13 -117.26 276.13 -114.2 276.13 C-114.2 275.8 -114.2 275.47 -114.2 275.13 C-117.17 275.13 -120.14 275.13 -123.2 275.13 Z " fill="#1D2059" transform="translate(754.203125,222.8671875)"/>
<path d="M0 0 C15.72 13.52 25.79 28.39 27.45 49.72 C27.59 54.95 27.57 60.18 27.56 65.41 C27.56 66.99 27.56 68.58 27.56 70.17 C27.56 74.46 27.55 78.75 27.55 83.04 C27.54 87.53 27.54 92.02 27.54 96.51 C27.54 105.01 27.53 113.51 27.52 122 C27.51 131.68 27.5 141.35 27.5 151.03 C27.49 170.93 27.47 190.82 27.45 210.72 C19.77 210.74 12.1 210.76 4.43 210.77 C1.82 210.78 -0.79 210.79 -3.41 210.79 C-7.15 210.81 -10.9 210.81 -14.64 210.82 C-15.82 210.82 -17 210.83 -18.21 210.83 C-19.29 210.83 -20.37 210.83 -21.48 210.83 C-22.44 210.83 -23.4 210.84 -24.38 210.84 C-26.55 210.72 -26.55 210.72 -27.55 209.72 C-27.66 208.22 -27.7 206.71 -27.71 205.21 C-27.71 204.23 -27.72 203.26 -27.73 202.25 C-27.73 201.17 -27.74 200.1 -27.74 198.98 C-27.76 197.29 -27.76 197.29 -27.77 195.56 C-27.79 193.09 -27.8 190.62 -27.81 188.16 C-27.84 184.24 -27.86 180.32 -27.89 176.4 C-27.95 168.75 -27.99 161.11 -28.04 153.47 C-28.1 143.14 -28.17 132.82 -28.25 122.49 C-28.27 118.66 -28.29 114.82 -28.31 110.99 C-28.38 100.62 -28.48 90.27 -29.01 79.92 C-29.05 79.18 -29.09 78.43 -29.12 77.67 C-29.81 66 -32.78 55.4 -39.55 45.72 C-42.18 43.27 -42.18 43.27 -45.55 41.72 C-46.23 41.35 -46.9 40.98 -47.6 40.6 C-56.77 36.16 -67.95 36.17 -77.55 39.34 C-81.87 41.15 -85.42 43.55 -89 46.55 C-90.55 47.72 -90.55 47.72 -92.55 47.72 C-92.83 48.29 -93.1 48.87 -93.38 49.46 C-94.57 51.74 -95.9 53.79 -97.37 55.91 C-98.43 57.51 -99.49 59.11 -100.55 60.72 C-101.02 61.4 -101.48 62.08 -101.95 62.78 C-105.64 68.69 -106.81 74.78 -107.98 81.56 C-108.55 84.72 -108.55 84.72 -109.55 86.72 C-109.7 88.25 -109.8 89.78 -109.86 91.31 C-109.92 92.74 -109.92 92.74 -109.98 94.2 C-110.02 95.23 -110.06 96.26 -110.1 97.33 C-110.16 98.94 -110.16 98.94 -110.22 100.59 C-110.64 112.04 -110.78 123.48 -110.87 134.94 C-110.89 137.15 -110.91 139.35 -110.93 141.56 C-110.99 147.28 -111.04 153 -111.09 158.72 C-111.14 164.6 -111.19 170.47 -111.25 176.34 C-111.35 187.8 -111.46 199.26 -111.55 210.72 C-119.23 210.74 -126.9 210.76 -134.57 210.77 C-137.18 210.78 -139.79 210.79 -142.41 210.79 C-146.15 210.81 -149.9 210.81 -153.64 210.82 C-154.82 210.82 -156 210.83 -157.21 210.83 C-158.29 210.83 -159.37 210.83 -160.48 210.83 C-161.44 210.83 -162.4 210.84 -163.38 210.84 C-165.55 210.72 -165.55 210.72 -166.55 209.72 C-166.66 207.29 -166.7 204.89 -166.7 202.45 C-166.7 201.68 -166.71 200.91 -166.71 200.12 C-166.72 197.52 -166.73 194.92 -166.73 192.32 C-166.74 190.47 -166.74 188.61 -166.75 186.76 C-166.77 181.7 -166.78 176.64 -166.79 171.58 C-166.79 168.42 -166.8 165.26 -166.8 162.1 C-166.82 152.21 -166.84 142.32 -166.85 132.43 C-166.86 121.02 -166.88 109.61 -166.92 98.19 C-166.95 89.37 -166.97 80.56 -166.97 71.74 C-166.97 66.47 -166.98 61.2 -167.01 55.93 C-167.03 50.97 -167.03 46.01 -167.02 41.05 C-167.02 39.23 -167.03 37.42 -167.04 35.6 C-167.17 18 -167.17 18 -162.55 9.72 C-161.69 8.14 -161.69 8.14 -160.8 6.53 C-153.54 -2.54 -145.09 -7.8 -133.55 -9.28 C-129.66 -9.37 -125.81 -9.17 -121.93 -8.91 C-120.42 -8.82 -120.42 -8.82 -118.89 -8.73 C-116.44 -8.59 -114 -8.44 -111.55 -8.28 C-111.22 -1.68 -110.89 4.92 -110.55 11.72 C-108.8 10.38 -107.05 9.04 -105.24 7.66 C-92.71 -1.76 -79.24 -10.58 -63.55 -13.28 C-63.22 -13.61 -62.89 -13.94 -62.55 -14.28 C-40.66 -17.65 -17.53 -14.45 0 0 Z " fill="#1D2059" transform="translate(527.5537109375,841.28076171875)"/>
<path d="M0 0 C1.18 -0 1.18 -0 2.38 -0.01 C5.03 -0.01 7.67 -0.01 10.32 -0.01 C12.23 -0.01 14.14 -0.01 16.05 -0.02 C21.32 -0.03 26.58 -0.03 31.84 -0.03 C37.51 -0.03 43.18 -0.04 48.85 -0.04 C61.26 -0.06 73.66 -0.06 86.07 -0.07 C93.81 -0.07 101.56 -0.08 109.3 -0.08 C130.73 -0.09 152.17 -0.1 173.6 -0.11 C174.99 -0.11 176.37 -0.11 177.76 -0.11 C179.15 -0.11 180.54 -0.11 181.93 -0.11 C184.71 -0.11 187.5 -0.11 190.29 -0.11 C190.98 -0.11 191.67 -0.11 192.38 -0.11 C214.79 -0.11 237.2 -0.13 259.61 -0.15 C283.3 -0.18 307 -0.19 330.69 -0.19 C343.6 -0.19 356.52 -0.2 369.43 -0.22 C380.43 -0.23 391.43 -0.24 402.42 -0.23 C408.03 -0.22 413.64 -0.23 419.26 -0.24 C424.39 -0.25 429.53 -0.25 434.67 -0.24 C436.52 -0.24 438.38 -0.24 440.24 -0.25 C461.44 -0.34 461.44 -0.34 470.16 6.13 C470.16 6.79 470.16 7.45 470.16 8.13 C470.74 8.34 471.32 8.54 471.91 8.76 C476.75 11.71 479.68 17.75 481.16 23.13 C481.61 27.66 481.57 32.18 481.55 36.73 C481.56 38.12 481.56 39.51 481.57 40.9 C481.58 44.72 481.58 48.53 481.57 52.35 C481.57 56.47 481.58 60.59 481.59 64.71 C481.61 72.79 481.61 80.86 481.6 88.93 C481.6 95.5 481.6 102.07 481.6 108.64 C481.6 109.58 481.61 110.51 481.61 111.48 C481.61 113.38 481.61 115.28 481.61 117.18 C481.62 135.03 481.62 152.87 481.61 170.71 C481.6 186.99 481.61 203.27 481.63 219.55 C481.66 236.29 481.67 253.04 481.66 269.78 C481.66 279.17 481.66 288.56 481.68 297.95 C481.69 305.95 481.69 313.95 481.68 321.96 C481.67 326.03 481.67 330.1 481.68 334.18 C481.81 370.59 476.12 403.62 455.16 434.13 C454.54 435.06 453.91 435.98 453.27 436.93 C448.79 443.33 443.82 448.76 438.16 454.13 C437.34 454.98 436.51 455.82 435.66 456.69 C433.34 458.96 430.99 461.19 428.6 463.38 C427.49 464.41 427.49 464.41 426.35 465.46 C424.2 467.11 422.81 467.72 420.16 468.13 C420.16 468.79 420.16 469.45 420.16 470.13 C418.24 471.76 416.32 473.27 414.29 474.76 C413.73 475.18 413.18 475.6 412.6 476.03 C408.43 479.13 408.43 479.13 406.16 479.13 C406.16 479.79 406.16 480.45 406.16 481.13 C404.25 482.69 404.25 482.69 401.54 484.57 C397.13 487.69 392.83 490.9 388.6 494.26 C387.41 495.2 386.21 496.14 385.02 497.09 C384.09 497.83 384.09 497.83 383.13 498.58 C379.57 501.38 375.99 504.16 372.41 506.94 C371.66 507.53 370.9 508.12 370.13 508.72 C367.03 511.13 363.93 513.54 360.83 515.94 C358.53 517.73 356.22 519.53 353.91 521.32 C352.8 522.19 352.8 522.19 351.66 523.07 C348.15 525.8 344.65 528.53 341.17 531.28 C340.54 531.77 339.92 532.27 339.27 532.78 C338.13 533.68 336.98 534.59 335.84 535.49 C324.91 544.13 324.91 544.13 322.16 544.13 C321.83 545.12 321.5 546.11 321.16 547.13 C318.73 549.17 318.73 549.17 315.73 551.32 C314.24 552.39 314.24 552.39 312.73 553.49 C310.16 555.13 310.16 555.13 308.16 555.13 C308.16 555.79 308.16 556.45 308.16 557.13 C306.57 558.55 306.57 558.55 304.32 560.19 C303.49 560.8 302.67 561.4 301.82 562.03 C300.92 562.68 300.02 563.33 299.1 564.01 C293.37 568.22 287.7 572.44 282.26 577.02 C267.39 589.45 248.87 598.65 229.16 599.13 C228.03 599.19 228.03 599.19 226.87 599.25 C202.59 599.96 182.84 590.4 164.28 575.8 C162.12 574.1 159.95 572.42 157.78 570.74 C154 567.81 150.23 564.87 146.46 561.93 C143.38 559.52 140.29 557.12 137.21 554.72 C130.62 549.61 124.04 544.47 117.48 539.31 C111.28 534.43 105.06 529.6 98.83 524.76 C95.68 522.32 92.54 519.86 89.4 517.41 C87.84 516.19 86.28 514.97 84.73 513.76 C83.61 512.88 83.61 512.88 82.46 511.99 C77.39 508.04 72.23 504.24 66.94 500.58 C66.35 500.11 65.77 499.63 65.16 499.13 C65.16 498.47 65.16 497.81 65.16 497.13 C64.44 496.87 63.71 496.62 62.96 496.35 C60.04 495.08 57.85 493.59 55.35 491.63 C54.56 491.02 53.77 490.41 52.96 489.79 C52.36 489.24 51.77 488.69 51.16 488.13 C51.16 487.47 51.16 486.81 51.16 486.13 C50.13 485.79 50.13 485.79 49.07 485.44 C45.52 483.84 42.72 481.63 39.73 479.19 C38.48 478.2 37.24 477.2 36 476.21 C35.36 475.7 34.73 475.19 34.08 474.66 C32.23 473.18 30.36 471.72 28.49 470.28 C7.89 454.34 7.89 454.34 0.16 444.13 C0.16 443.47 0.16 442.81 0.16 442.13 C-0.5 442.13 -1.16 442.13 -1.84 442.13 C-3.46 440.02 -4.94 437.92 -6.4 435.69 C-6.84 435.02 -7.28 434.35 -7.74 433.66 C-15.41 421.79 -21.59 409.64 -25.84 396.13 C-26.26 394.83 -26.26 394.83 -26.7 393.5 C-31.25 379.04 -32.99 365.25 -32.98 350.15 C-32.98 348.74 -32.98 347.33 -32.99 345.92 C-32.99 342.07 -33 338.21 -33 334.36 C-33 330.2 -33.01 326.03 -33.01 321.87 C-33.03 312.78 -33.03 303.68 -33.04 294.59 C-33.04 288.91 -33.04 283.23 -33.05 277.56 C-33.06 261.83 -33.07 246.1 -33.07 230.37 C-33.07 229.37 -33.07 228.36 -33.07 227.33 C-33.08 226.32 -33.08 225.31 -33.08 224.27 C-33.08 222.23 -33.08 220.19 -33.08 218.15 C-33.08 217.13 -33.08 216.12 -33.08 215.08 C-33.08 198.65 -33.1 182.22 -33.12 165.79 C-33.15 148.91 -33.16 132.04 -33.16 115.16 C-33.16 105.69 -33.17 96.22 -33.18 86.75 C-33.2 78.69 -33.2 70.63 -33.2 62.57 C-33.19 58.45 -33.19 54.34 -33.21 50.23 C-33.22 46.46 -33.22 42.7 -33.21 38.93 C-33.2 36.93 -33.22 34.92 -33.23 32.92 C-33.17 23.14 -31.43 15.72 -24.23 8.53 C-16.72 1.81 -9.93 -0.02 0 0 Z M27.47 13.16 C23.74 13.18 20.02 13.22 16.3 13.29 C14.31 13.33 12.32 13.33 10.33 13.34 C1.13 13.56 -5.5 15.57 -12.65 21.44 C-17.86 27.84 -22.08 34.27 -22.09 42.73 C-22.1 43.85 -22.11 44.98 -22.11 46.13 C-22.11 47.36 -22.11 48.59 -22.1 49.85 C-22.11 51.16 -22.11 52.47 -22.12 53.82 C-22.13 57.45 -22.13 61.08 -22.13 64.71 C-22.13 68.63 -22.14 72.55 -22.15 76.46 C-22.16 84.14 -22.17 91.82 -22.17 99.5 C-22.17 105.75 -22.18 111.99 -22.18 118.24 C-22.2 135.98 -22.21 153.72 -22.21 171.46 C-22.21 172.41 -22.21 173.37 -22.21 174.36 C-22.21 175.31 -22.21 176.27 -22.21 177.26 C-22.21 192.74 -22.23 208.22 -22.25 223.71 C-22.28 239.62 -22.3 255.54 -22.29 271.46 C-22.29 280.39 -22.3 289.32 -22.32 298.25 C-22.34 305.86 -22.34 313.47 -22.33 321.08 C-22.32 324.95 -22.32 328.83 -22.34 332.7 C-22.43 353.13 -21.68 372.97 -14.21 392.26 C-13.87 393.15 -13.53 394.05 -13.19 394.98 C-7.68 409.14 -0.69 422.51 9.16 434.13 C9.6 434.65 10.03 435.17 10.48 435.7 C18.15 444.71 26.77 451.99 36.16 459.13 C37.28 459.99 38.4 460.85 39.52 461.72 C41.65 463.36 43.78 465 45.92 466.64 C49.36 469.27 52.76 471.95 56.16 474.63 C60.64 478.16 65.14 481.66 69.66 485.13 C74.08 488.52 78.48 491.94 82.85 495.38 C93.49 503.76 104.17 512.08 114.91 520.32 C119.3 523.68 123.64 527.08 127.98 530.51 C133.62 534.97 139.36 539.29 145.13 543.58 C149.07 546.52 152.94 549.53 156.76 552.63 C177.06 569.13 198.01 583.51 225.42 582.42 C237.01 581.21 247.63 579.37 258.16 574.13 C259.13 573.68 260.09 573.22 261.09 572.75 C264.46 570.98 267.52 568.92 270.6 566.69 C271.2 566.26 271.8 565.83 272.41 565.39 C278.97 560.63 285.26 555.54 291.55 550.44 C295.04 547.61 298.6 544.87 302.16 542.13 C303.72 540.93 303.72 540.93 305.32 539.7 C310.56 535.66 315.81 531.64 321.11 527.67 C330.69 520.48 340.17 513.17 349.5 505.65 C354.16 501.9 358.9 498.25 363.66 494.63 C369.77 489.99 375.8 485.26 381.78 480.44 C386.76 476.43 391.82 472.53 396.9 468.64 C401.03 465.48 405.11 462.27 409.18 459.05 C413.31 455.79 417.47 452.6 421.69 449.47 C422.17 449.03 422.66 448.59 423.16 448.13 C423.16 447.47 423.16 446.81 423.16 446.13 C424.48 445.47 425.8 444.81 427.16 444.13 C427.16 443.47 427.16 442.81 427.16 442.13 C428.15 441.8 429.14 441.47 430.16 441.13 C431.99 439.09 433.68 437.05 435.35 434.88 C435.84 434.25 436.33 433.62 436.83 432.97 C460.8 401.52 466.83 367.97 466.67 329.27 C466.66 325.34 466.67 321.41 466.68 317.48 C466.7 309.82 466.69 302.15 466.67 294.49 C466.66 285.55 466.66 276.61 466.66 267.67 C466.67 251.73 466.65 235.78 466.63 219.84 C466.61 204.38 466.6 188.93 466.61 173.47 C466.62 156.6 466.62 139.72 466.61 122.85 C466.61 121.05 466.61 119.25 466.6 117.45 C466.6 116.56 466.6 115.68 466.6 114.77 C466.6 108.54 466.6 102.32 466.6 96.09 C466.61 88.51 466.6 80.94 466.58 73.36 C466.57 69.49 466.57 65.63 466.57 61.77 C466.58 57.58 466.57 53.39 466.55 49.2 C466.56 47.98 466.56 46.77 466.57 45.51 C466.5 36.2 465.19 29.68 458.66 22.63 C457.89 21.78 457.12 20.92 456.32 20.04 C454.27 17.8 454.27 17.8 451.16 18.13 C451.16 17.47 451.16 16.81 451.16 16.13 C445.2 13.5 439.62 13.01 433.14 13.01 C432.46 13 431.77 13 431.06 13 C428.76 13 426.47 13 424.17 13 C422.5 13 420.84 13 419.17 13 C414.6 13 410.02 13 405.44 13 C400.51 13 395.57 13 390.63 13 C380.95 12.99 371.27 12.99 361.59 13 C353.71 13 345.83 13 337.95 13 C336.83 13 335.71 13 334.55 13 C332.27 13 329.99 13 327.71 13 C306.3 12.99 284.9 13 263.49 13 C245.18 13.01 226.87 13.01 208.56 13 C187.27 13 165.99 12.99 144.7 13 C142.42 13 140.14 13 137.86 13 C136.17 13 136.17 13 134.46 13 C126.61 13 118.77 13 110.92 13 C101.32 12.99 91.72 12.99 82.12 13 C77.24 13 72.35 13 67.47 13 C56.48 12.99 45.49 13.02 34.5 13.11 C32.15 13.13 29.81 13.14 27.47 13.16 Z " fill="#FCFCFC" transform="translate(409.8365592956543,122.86857223510742)"/>
<path d="M0 0 C1.06 0.01 2.11 0.03 3.2 0.04 C5.78 0.08 8.36 0.13 10.94 0.19 C12.19 2.69 12.06 4.37 12.06 7.17 C12.06 8.23 12.06 9.28 12.07 10.38 C12.06 12.14 12.06 12.14 12.06 13.93 C12.06 15.17 12.06 16.41 12.06 17.69 C12.06 21.14 12.06 24.59 12.05 28.04 C12.05 31.75 12.05 35.47 12.05 39.19 C12.05 45.63 12.05 52.07 12.04 58.51 C12.04 67.83 12.03 77.14 12.03 86.46 C12.03 101.57 12.02 116.68 12.01 131.79 C12 146.48 12 161.16 11.99 175.84 C11.99 176.75 11.99 177.65 11.99 178.58 C11.99 183.12 11.99 187.66 11.99 192.2 C11.98 229.86 11.96 267.52 11.94 305.19 C4.27 305.21 -3.41 305.23 -11.08 305.24 C-13.69 305.25 -16.3 305.25 -18.92 305.26 C-22.66 305.28 -26.41 305.28 -30.15 305.29 C-31.33 305.29 -32.5 305.3 -33.72 305.3 C-34.8 305.3 -35.88 305.3 -36.99 305.3 C-37.95 305.3 -38.91 305.31 -39.89 305.31 C-42.06 305.19 -42.06 305.19 -43.06 304.19 C-43.16 302.72 -43.19 301.25 -43.19 299.78 C-43.2 298.82 -43.2 297.86 -43.21 296.87 C-43.2 295.81 -43.2 294.74 -43.2 293.64 C-43.21 292.52 -43.21 291.4 -43.21 290.24 C-43.22 286.45 -43.22 282.66 -43.22 278.86 C-43.23 276.16 -43.23 273.45 -43.24 270.75 C-43.25 263.37 -43.26 255.99 -43.26 248.62 C-43.27 244.01 -43.27 239.41 -43.27 234.8 C-43.29 222.06 -43.3 209.31 -43.3 196.56 C-43.3 195.75 -43.3 194.93 -43.3 194.09 C-43.3 193.27 -43.3 192.45 -43.3 191.61 C-43.3 189.95 -43.3 188.29 -43.3 186.63 C-43.3 185.81 -43.3 184.99 -43.3 184.14 C-43.31 170.82 -43.32 157.49 -43.35 144.17 C-43.37 130.5 -43.38 116.83 -43.39 103.15 C-43.39 95.47 -43.39 87.8 -43.41 80.12 C-43.43 73.58 -43.43 67.03 -43.42 60.49 C-43.42 57.16 -43.42 53.82 -43.43 50.48 C-43.45 46.86 -43.44 43.24 -43.43 39.62 C-43.44 38.57 -43.45 37.52 -43.45 36.44 C-43.39 26.83 -40.67 18.39 -34.06 11.19 C-23.11 2.9 -13.57 -0.33 0 0 Z " fill="#1D2059" transform="translate(1107.0625,746.8125)"/>
<path d="M0 0 C1.21 0 1.21 0 2.45 0.01 C3.3 0 4.14 0 5.02 0 C7.83 -0 10.65 -0 13.46 0 C15.41 0 17.35 0 19.3 -0 C23.39 -0 27.47 0 31.56 0.01 C36.81 0.01 42.06 0.01 47.31 0 C51.33 -0 55.35 -0 59.37 0 C61.31 0 63.24 0 65.18 -0 C67.88 -0 70.58 0 73.28 0.01 C74.09 0 74.9 0 75.73 0 C81.25 0.02 81.25 0.02 82.37 1.14 C82.46 3.69 82.5 6.22 82.49 8.77 C82.49 9.58 82.49 10.39 82.49 11.23 C82.49 13.96 82.48 16.69 82.48 19.42 C82.48 21.38 82.48 23.33 82.48 25.28 C82.48 30.59 82.47 35.91 82.47 41.22 C82.46 46.77 82.46 52.31 82.46 57.86 C82.46 68.37 82.45 78.88 82.44 89.39 C82.43 101.36 82.42 113.32 82.42 125.28 C82.41 149.9 82.39 174.52 82.37 199.14 C80.37 197.76 80.37 197.76 78.37 196.14 C78.37 195.48 78.37 194.82 78.37 194.14 C77.71 194.14 77.05 194.14 76.37 194.14 C75.15 192.81 75.15 192.81 73.79 190.95 C73.29 190.28 72.79 189.6 72.28 188.9 C71.75 188.18 71.22 187.45 70.68 186.7 C69.58 185.22 68.49 183.73 67.4 182.25 C66.87 181.54 66.34 180.82 65.8 180.08 C60.81 173.32 55.5 166.85 50.09 160.42 C48.37 158.14 48.37 158.14 48.37 156.14 C47.71 156.14 47.05 156.14 46.37 156.14 C42.37 150.72 42.37 150.72 42.37 148.14 C41.71 148.14 41.05 148.14 40.37 148.14 C38.93 146.4 37.56 144.59 36.24 142.76 C35.43 141.66 34.63 140.55 33.82 139.45 C33.41 138.9 33 138.34 32.58 137.76 C30.19 134.56 27.63 131.48 25.09 128.39 C23.37 126.14 23.37 126.14 21.89 123.6 C20.29 121.02 18.54 119.24 16.37 117.14 C9.73 109.4 3.44 101.31 -2.63 93.14 C-3.33 92.26 -4.03 91.38 -4.75 90.48 C-7.12 86.27 -7.18 83.32 -7.1 78.58 C-7.11 77.32 -7.11 77.32 -7.11 76.04 C-7.11 73.28 -7.09 70.53 -7.06 67.77 C-7.06 65.86 -7.05 63.94 -7.05 62.02 C-7.04 58.01 -7.02 54 -6.99 49.99 C-6.95 44.85 -6.93 39.7 -6.92 34.55 C-6.91 29.64 -6.89 24.74 -6.87 19.83 C-6.87 18.89 -6.87 17.95 -6.86 16.98 C-6.85 14.34 -6.83 11.69 -6.81 9.05 C-6.81 8.26 -6.81 7.47 -6.8 6.65 C-6.74 0.18 -6.46 0.02 0 0 Z " fill="#1D2059" transform="translate(486.6344451904297,222.86447143554688)"/>
<path d="M0 0 C1.05 0.01 2.1 0.03 3.19 0.04 C5.75 0.08 8.31 0.13 10.88 0.19 C12.04 2.51 12 3.85 12 6.45 C12.01 7.79 12.01 7.79 12.01 9.15 C12.01 10.63 12.01 10.63 12 12.13 C12.01 13.68 12.01 13.68 12.01 15.26 C12.01 18.68 12.01 22.11 12.01 25.54 C12.01 27.91 12.01 30.28 12.01 32.65 C12.01 37.62 12.01 42.6 12.01 47.57 C12 53.96 12 60.36 12.01 66.75 C12.01 71.64 12.01 76.54 12.01 81.44 C12.01 83.8 12.01 86.15 12.01 88.51 C12.01 91.8 12.01 95.09 12 98.38 C12.01 99.36 12.01 100.34 12.01 101.36 C12.01 102.25 12 103.14 12 104.06 C12 105.22 12 105.22 12 106.41 C11.88 108.19 11.88 108.19 10.88 109.19 C10.74 111.11 10.67 113.04 10.63 114.96 C10.6 116.17 10.57 117.38 10.53 118.62 C10.5 119.92 10.47 121.22 10.44 122.56 C9.71 147.24 8.6 173.38 -8.12 193.19 C-8.72 193.98 -9.31 194.77 -9.91 195.58 C-18.82 207.31 -33.47 219.39 -48.5 221.71 C-53.64 220.97 -55.3 218.47 -58.38 214.5 C-58.89 213.87 -59.41 213.25 -59.94 212.6 C-62.64 209.28 -64.99 205.91 -67.12 202.19 C-68.83 199.95 -70.5 197.8 -72.51 195.83 C-78.56 189.68 -83.5 182.44 -88.12 175.19 C-87.51 175.07 -86.89 174.95 -86.25 174.82 C-84.47 174.47 -82.7 174.11 -80.92 173.75 C-79.19 173.4 -77.47 173.07 -75.74 172.75 C-65.13 170.68 -57.99 165.84 -51.58 157.08 C-48.63 152.06 -47.61 147.01 -47.01 141.29 C-46.92 140.51 -46.84 139.73 -46.75 138.92 C-45.85 129.67 -45.86 120.42 -45.88 111.13 C-45.89 107.89 -45.88 104.65 -45.86 101.41 C-45.83 92.22 -45.81 83.02 -45.82 73.83 C-45.83 68.17 -45.81 62.51 -45.77 56.84 C-45.77 54.7 -45.77 52.56 -45.78 50.43 C-45.85 34.71 -44.98 23.19 -33.51 11.38 C-23.45 2.14 -13.47 -0.33 0 0 Z " fill="#1D2059" transform="translate(324.125,830.8125)"/>
<path d="M0 0 C1.08 -0 2.16 -0.01 3.27 -0.01 C5.02 -0.01 5.02 -0.01 6.8 -0 C8 -0 9.19 -0.01 10.42 -0.01 C12.95 -0.01 15.47 -0.01 18 -0 C21.88 0 25.76 -0 29.65 -0.01 C32.09 -0.01 34.54 -0.01 36.99 -0 C38.16 -0.01 39.33 -0.01 40.54 -0.01 C41.61 -0.01 42.69 -0 43.79 0 C44.74 0 45.7 0 46.67 0 C48.83 0.13 48.83 0.13 49.83 1.13 C49.93 2.77 49.95 4.42 49.95 6.07 C49.95 7.14 49.95 8.21 49.96 9.31 C49.95 11.09 49.95 11.09 49.95 12.9 C49.95 14.14 49.95 15.38 49.95 16.66 C49.95 20.06 49.94 23.47 49.93 26.88 C49.93 30.43 49.93 33.99 49.93 37.55 C49.92 44.29 49.91 51.03 49.9 57.77 C49.89 65.44 49.89 73.11 49.88 80.78 C49.87 96.56 49.85 112.35 49.83 128.13 C47.83 126.82 47.83 126.82 45.83 125.13 C45.83 124.14 45.83 123.15 45.83 122.13 C45.23 121.9 44.64 121.68 44.02 121.44 C41.25 119.78 40.4 117.92 38.83 115.13 C37.84 114.12 36.84 113.12 35.83 112.13 C30.09 105.47 24.81 98.51 19.73 91.35 C17.03 87.59 14.16 84.37 10.83 81.13 C9.83 79.47 8.83 77.8 7.83 76.13 C6.27 74.28 4.67 72.47 3.04 70.68 C1.83 69.13 1.83 69.13 1.83 67.13 C1.17 67.13 0.51 67.13 -0.17 67.13 C-0.5 65.81 -0.83 64.49 -1.17 63.13 C-1.83 63.13 -2.49 63.13 -3.17 63.13 C-5.88 59.5 -6.55 56.81 -6.6 52.33 C-6.63 50.62 -6.63 50.62 -6.66 48.87 C-6.67 47.65 -6.67 46.43 -6.68 45.17 C-6.7 43.91 -6.72 42.66 -6.73 41.36 C-6.78 38.03 -6.81 34.7 -6.84 31.36 C-6.87 27.96 -6.91 24.55 -6.96 21.15 C-7.04 14.47 -7.11 7.8 -7.17 1.13 C-4.63 -0.14 -2.85 0 0 0 Z " fill="#1D2059" transform="translate(149.168212890625,830.87060546875)"/>
<path d="M0 0 C5.82 0.07 11.47 0.16 17.21 1.23 C17.21 1.89 17.21 2.55 17.21 3.23 C17.91 3.42 18.61 3.6 19.33 3.79 C24.6 6.43 28.64 11.57 30.74 17.08 C32.41 24.76 32.06 32.38 28.21 39.23 C27.77 40.14 27.34 41.05 26.89 41.98 C24.57 45.07 22.86 45.85 19.21 47.23 C15.26 47.61 11.35 47.56 7.39 47.48 C6.33 47.48 5.27 47.47 4.18 47.46 C-3.64 47.38 -3.64 47.38 -4.79 46.23 C-4.9 44.86 -4.93 43.48 -4.94 42.11 C-4.94 41.24 -4.95 40.36 -4.96 39.46 C-4.96 38.51 -4.96 37.56 -4.96 36.58 C-4.96 35.61 -4.97 34.64 -4.97 33.64 C-4.98 31.58 -4.98 29.52 -4.98 27.47 C-4.98 24.31 -5 21.15 -5.02 18 C-5.02 16 -5.02 14.01 -5.02 12.02 C-5.03 11.07 -5.04 10.12 -5.05 9.14 C-5.04 8.26 -5.04 7.38 -5.04 6.48 C-5.04 5.71 -5.04 4.93 -5.04 4.13 C-4.6 0.77 -3.21 0.26 0 0 Z M6.21 10.23 C3.95 12.06 3.95 12.06 3.98 14.75 C3.99 15.79 4 16.83 4.01 17.89 C4.02 19.02 4.02 20.14 4.03 21.29 C4.05 22.47 4.06 23.64 4.08 24.86 C4.09 26.04 4.1 27.22 4.11 28.44 C4.13 31.37 4.17 34.3 4.21 37.23 C6.14 37.31 8.08 37.37 10.02 37.42 C11.1 37.45 12.18 37.49 13.29 37.52 C16.19 37.49 16.19 37.49 18.02 35.86 C21.3 31.36 21.88 26.68 21.21 21.23 C20.27 17.81 18.92 15.02 16.52 12.36 C13.04 10.66 10.09 10.42 6.21 10.23 Z M6.21 38.23 C10.21 39.23 10.21 39.23 10.21 39.23 Z " fill="#1D2059" transform="translate(753.79296875,1079.76953125)"/>
<path d="M0 0 C2.94 0.19 2.94 0.19 3.94 1.19 C4.03 2.63 4.05 4.08 4.05 5.52 C4.05 6.44 4.05 7.37 4.05 8.31 C4.05 9.32 4.04 10.32 4.04 11.35 C4.03 12.37 4.03 13.39 4.03 14.44 C4.03 17.71 4.01 20.98 4 24.25 C3.99 26.46 3.99 28.67 3.99 30.88 C3.98 36.32 3.96 41.75 3.94 47.19 C2.18 47.35 0.42 47.51 -1.33 47.67 C-2.31 47.76 -3.29 47.85 -4.3 47.94 C-19.31 49.27 -19.31 49.27 -24.19 46.06 C-28.05 42.59 -29.79 39.47 -30.41 34.23 C-30.7 27.78 -30.32 22.5 -26.75 17 C-23.73 13.75 -20.36 12.16 -16.06 11.19 C-11.68 11.33 -9.7 11.76 -6.06 14.19 C-6.01 13.34 -5.96 12.5 -5.91 11.63 C-5.84 10.54 -5.76 9.44 -5.69 8.31 C-5.62 7.22 -5.55 6.13 -5.48 5.01 C-4.89 0.98 -4.06 0.25 0 0 Z M-18.06 23.19 C-20.85 26.81 -20.34 30.82 -20.06 35.19 C-18.44 38.3 -18.44 38.3 -16.04 38.84 C-11.09 39.47 -11.09 39.47 -6.5 37.81 C-4.38 33.94 -4.42 30.5 -5.06 26.19 C-5.99 23.61 -5.99 23.61 -8.06 22.19 C-12.01 21.01 -14.68 20.65 -18.06 23.19 Z " fill="#1D2059" transform="translate(482.0625,1079.8125)"/>
<path d="M0 0 C0.76 0.27 1.53 0.54 2.31 0.81 C3.3 0.15 4.29 -0.51 5.31 -1.19 C9.85 -0.65 9.85 -0.65 11.31 0.81 C11.41 2.22 11.43 3.64 11.43 5.06 C11.43 5.96 11.43 6.86 11.43 7.79 C11.42 8.77 11.42 9.75 11.41 10.75 C11.41 11.75 11.41 12.75 11.41 13.78 C11.4 16.98 11.39 20.18 11.38 23.38 C11.37 25.54 11.37 27.7 11.36 29.87 C11.35 35.18 11.33 40.5 11.31 45.81 C5.16 45.91 5.16 45.91 3.31 45.81 C2.31 44.81 2.31 44.81 2.21 42.75 C2.23 41.92 2.24 41.1 2.25 40.25 C2.26 39.42 2.27 38.6 2.28 37.75 C2.29 37.11 2.3 36.47 2.31 35.81 C-0.51 34.4 -2.8 34.87 -5.94 35 C-11.43 35.04 -14.56 34.73 -18.69 30.81 C-23.25 25.88 -24.07 21.74 -23.96 15.18 C-23.19 8.5 -19.49 4.13 -14.47 -0.06 C-9.68 -3.09 -5.02 -2.22 0 0 Z M-11.69 10.81 C-13.35 12.86 -13.71 14.15 -13.61 16.78 C-13.3 19.64 -12.98 22.22 -11.69 24.81 C-7.93 26.07 -4.62 26.38 -0.69 25.81 C1.52 24.43 1.52 24.43 2.31 21.81 C2.72 17.51 2.73 14.89 1.19 10.88 C-0.59 8.59 -0.59 8.59 -3.56 7.81 C-7.29 7.81 -8.8 8.49 -11.69 10.81 Z " fill="#1D2059" transform="translate(635.6875,1093.1875)"/>
<path d="M0 0 C3.5 0.12 3.5 0.12 4.5 1.12 C4.59 2.57 4.62 4.02 4.61 5.46 C4.61 6.38 4.61 7.3 4.61 8.25 C4.61 9.25 4.6 10.25 4.6 11.29 C4.6 12.3 4.59 13.32 4.59 14.37 C4.59 17.65 4.58 20.92 4.56 24.19 C4.56 26.4 4.55 28.61 4.55 30.82 C4.54 36.26 4.52 41.69 4.5 47.12 C2.74 47.29 0.99 47.45 -0.77 47.61 C-1.75 47.69 -2.73 47.78 -3.74 47.88 C-17.63 49.13 -17.63 49.13 -21.81 46.89 C-24.61 44.54 -26.46 42.18 -28.5 39.12 C-28.5 38.13 -28.5 37.14 -28.5 36.12 C-29.16 36.12 -29.82 36.12 -30.5 36.12 C-31.09 28.14 -30.27 22.5 -24.96 16.33 C-21.46 12.97 -18.38 11.24 -13.5 10.94 C-10.09 11.26 -7.52 12.55 -4.5 14.12 C-4.51 13.2 -4.52 12.27 -4.54 11.32 C-4.54 10.12 -4.55 8.92 -4.56 7.69 C-4.57 6.49 -4.59 5.3 -4.6 4.07 C-4.46 -0.19 -4.36 0.16 0 0 Z M-18.5 24.12 C-20.82 27.33 -20.9 30.24 -20.5 34.12 C-18.72 37.26 -17.98 37.97 -14.5 39.12 C-11 39.62 -11 39.62 -7.5 39.12 C-4.95 36.14 -3.69 33.04 -3.5 29.12 C-5.04 25.19 -5.95 23.49 -9.5 21.12 C-13.83 21.12 -15.11 21.62 -18.5 24.12 Z " fill="#1D2059" transform="translate(400.5,1079.875)"/>
<path d="M0 0 C2.94 0.19 2.94 0.19 3.94 1.19 C4.03 2.63 4.05 4.08 4.05 5.52 C4.05 6.44 4.05 7.37 4.05 8.31 C4.05 9.32 4.04 10.32 4.04 11.35 C4.03 12.37 4.03 13.39 4.03 14.44 C4.03 17.71 4.01 20.98 4 24.25 C3.99 26.46 3.99 28.67 3.99 30.88 C3.98 36.32 3.96 41.75 3.94 47.19 C2.18 47.35 0.42 47.51 -1.34 47.67 C-2.32 47.76 -3.31 47.85 -4.32 47.95 C-17.11 49.07 -17.11 49.07 -22.5 46.62 C-29.73 39.75 -29.73 39.75 -30.44 34.28 C-30.67 22.18 -30.67 22.18 -26.43 17.31 C-23.24 14.21 -20.4 11.84 -15.94 11.06 C-11.8 11.2 -9.54 12.01 -6.06 14.19 C-6.01 13.34 -5.96 12.5 -5.91 11.63 C-5.84 10.54 -5.76 9.44 -5.69 8.31 C-5.62 7.22 -5.55 6.13 -5.48 5.01 C-4.89 0.98 -4.06 0.25 0 0 Z M-18.06 23.19 C-20.28 25.94 -21.01 27.73 -21.44 31.25 C-21.02 34.53 -20.38 35.87 -18.06 38.19 C-14.44 39.4 -11.87 39.59 -8.06 39.19 C-5.36 37.32 -5.36 37.32 -4.06 34.19 C-3.97 30.34 -4.85 26.83 -6.06 23.19 C-10.36 20.46 -13.63 20.86 -18.06 23.19 Z " fill="#1D2059" transform="translate(920.0625,1079.8125)"/>
<path d="M0 0 C0.95 0 1.89 0.01 2.87 0.01 C3.9 0.01 4.92 0.02 5.98 0.02 C7.06 0.03 8.13 0.04 9.24 0.06 C10.32 0.06 11.4 0.06 12.51 0.06 C20.54 0.1 20.54 0.1 21.68 1.24 C21.82 4.58 21.72 7.9 21.68 11.24 C17.06 11.57 12.44 11.9 7.68 12.24 C7.35 13.89 7.02 15.54 6.68 17.24 C8.18 17.33 8.18 17.33 9.7 17.43 C11 17.51 12.29 17.59 13.61 17.68 C15.55 17.8 15.55 17.8 17.52 17.93 C20.68 18.24 20.68 18.24 21.68 19.24 C21.75 20.76 21.76 22.28 21.74 23.81 C21.73 24.63 21.72 25.46 21.71 26.31 C21.7 26.95 21.69 27.59 21.68 28.24 C20.68 28.3 19.68 28.36 18.65 28.43 C17.36 28.51 16.07 28.59 14.74 28.68 C13.45 28.76 12.16 28.84 10.84 28.93 C7.82 28.89 7.82 28.89 6.68 30.24 C6.35 32.55 6.02 34.86 5.68 37.24 C10.63 37.24 15.58 37.24 20.68 37.24 C22.28 40.46 21.73 43.68 21.68 47.24 C17.72 47.27 13.76 47.29 9.8 47.31 C8.11 47.32 8.11 47.32 6.38 47.33 C5.31 47.33 4.23 47.34 3.12 47.34 C2.13 47.35 1.13 47.35 0.11 47.36 C-2.32 47.24 -2.32 47.24 -4.32 46.24 C-4.37 40.01 -4.41 33.78 -4.43 27.55 C-4.44 25.43 -4.46 23.31 -4.47 21.19 C-4.5 18.15 -4.51 15.11 -4.52 12.06 C-4.53 11.11 -4.54 10.16 -4.55 9.18 C-4.55 8.3 -4.55 7.42 -4.55 6.51 C-4.55 5.73 -4.56 4.95 -4.56 4.15 C-4.18 1.1 -2.97 0.31 0 0 Z " fill="#1D2059" transform="translate(515.322509765625,1079.757080078125)"/>
<path d="M0 0 C2.94 0.19 2.94 0.19 3.94 1.19 C4.09 3.68 4.17 6.15 4.22 8.65 C4.25 9.78 4.25 9.78 4.27 10.92 C4.33 13.32 4.39 15.72 4.44 18.12 C4.51 21.28 4.58 24.43 4.66 27.59 C4.67 28.32 4.68 29.05 4.7 29.8 C4.73 33.62 4.73 33.62 5.94 37.19 C8.26 37.59 10.59 37.93 12.94 38.19 C15.85 35.19 16.28 32.83 16.28 28.7 C16.26 28 16.25 27.3 16.23 26.58 C16.22 25.49 16.22 25.49 16.22 24.38 C16.2 22.06 16.16 19.75 16.12 17.44 C16.11 15.87 16.1 14.29 16.08 12.72 C16.05 8.88 16 5.03 15.94 1.19 C18.92 -0.3 21.65 0.07 24.94 0.19 C26.61 1.86 26.07 3.9 26.08 6.13 C26.07 6.82 26.07 7.51 26.07 8.22 C26.07 9.29 26.07 9.29 26.07 10.38 C26.07 11.89 26.07 13.41 26.07 14.92 C26.06 17.22 26.07 19.51 26.07 21.8 C26.07 23.28 26.07 24.75 26.07 26.22 C26.07 26.9 26.07 27.58 26.08 28.28 C26.01 42.06 26.01 42.06 22.88 45.69 C19.4 48.79 15.39 48.79 10.94 48.88 C9.9 48.9 9.9 48.9 8.85 48.93 C5.1 48.85 2.49 48.22 -0.44 45.96 C-5.12 41.02 -5.36 36.49 -5.33 29.89 C-5.33 29.11 -5.33 28.32 -5.33 27.51 C-5.34 25.85 -5.33 24.2 -5.32 22.54 C-5.31 20 -5.32 17.46 -5.34 14.92 C-5.33 13.3 -5.33 11.69 -5.33 10.08 C-5.33 9.32 -5.34 8.56 -5.34 7.77 C-5.27 0.32 -5.27 0.32 0 0 Z " fill="#1D2059" transform="translate(152.0625,1079.8125)"/>
<path d="M0 0 C2.15 0.67 2.15 0.67 5.02 0.54 C5.35 0.21 5.68 -0.12 6.02 -0.46 C9.02 -0.58 9.02 -0.58 12.02 -0.46 C13.02 0.54 13.02 0.54 13.13 3.78 C13.13 5.21 13.12 6.64 13.11 8.08 C13.11 8.83 13.11 9.58 13.11 10.36 C13.1 12.78 13.09 15.19 13.08 17.61 C13.07 19.24 13.07 20.87 13.06 22.51 C13.05 26.52 13.04 30.53 13.02 34.54 C10.31 34.79 7.6 35.04 4.88 35.29 C2.72 35.48 0.55 35.68 -1.62 35.89 C-7.3 36.18 -11.13 36.15 -15.61 32.42 C-19.65 28.16 -21.78 24.66 -22.36 18.73 C-22.1 12.91 -20.79 7.45 -16.73 3.17 C-10.51 -0.51 -6.98 -2.01 0 0 Z M-8.98 10.54 C-11.4 13.68 -13.01 16.27 -12.92 20.29 C-11.59 23.49 -10.06 25.01 -6.98 26.54 C-3.57 27.04 -3.57 27.04 0.02 26.54 C3.22 23.83 3.93 22.21 4.45 18.04 C3.98 14.29 3.52 12.38 1.02 9.54 C-2.91 8.29 -5.69 7.91 -8.98 10.54 Z " fill="#1D2059" transform="translate(432.984375,1092.45703125)"/>
<path d="M0 0 C0.72 0.12 1.44 0.25 2.19 0.38 C2.52 0.05 2.85 -0.29 3.19 -0.62 C6.19 -0.75 6.19 -0.75 9.19 -0.62 C10.19 0.38 10.19 0.38 10.3 3.61 C10.3 5.04 10.3 6.48 10.29 7.91 C10.28 8.66 10.28 9.42 10.28 10.19 C10.28 12.61 10.26 15.02 10.25 17.44 C10.24 19.07 10.24 20.7 10.24 22.34 C10.23 26.35 10.21 30.36 10.19 34.38 C-13.22 36.57 -13.22 36.57 -17.94 32.69 C-22.26 28.35 -24.26 24.27 -24.38 18.12 C-24.22 11.43 -22.4 7.21 -17.81 2.38 C-11.7 -2.28 -7.22 -1.6 0 0 Z M-12.81 12.38 C-14.38 15.5 -14.21 18.95 -13.81 22.38 C-12.19 25.49 -12.19 25.49 -9.79 25.99 C-8.63 26.12 -8.63 26.12 -7.44 26.25 C-6.67 26.35 -5.9 26.45 -5.1 26.55 C-2.09 26.32 -0.89 25.55 1.19 23.38 C1.78 21.01 1.78 21.01 1.62 18.44 C1.62 17.16 1.62 17.16 1.62 15.85 C1.11 12.93 0.19 11.54 -1.81 9.38 C-6.58 7.31 -8.97 9.32 -12.81 12.38 Z " fill="#1D2059" transform="translate(827.8125,1092.625)"/>
<path d="M0 0 C1.18 0.14 1.18 0.14 2.38 0.27 C4.44 0.62 4.44 0.62 6.44 1.62 C6.44 2.29 6.44 2.94 6.44 3.62 C7.3 3.69 7.3 3.69 8.19 3.75 C11.63 5.09 12.65 7.49 14.44 10.62 C15.91 14.43 15.44 17.23 15.44 21.62 C7.19 21.62 -1.06 21.62 -9.56 21.62 C-9.05 25.67 -9.05 25.67 -6.44 26.94 C-1.86 28.03 2.04 27.09 6.44 25.62 C8.62 26.06 8.62 26.06 10.44 26.62 C10.44 27.29 10.44 27.94 10.44 28.62 C11.1 28.62 11.76 28.62 12.44 28.62 C12.25 30.94 12.25 30.94 11.44 33.62 C6.32 37.65 0.55 37.48 -5.66 37.24 C-10.8 36.43 -12.97 34.71 -16.14 30.7 C-16.61 30.02 -17.08 29.33 -17.56 28.62 C-18.22 27.82 -18.88 27.02 -19.56 26.19 C-21.42 21.42 -21.41 17.05 -19.72 12.22 C-16.89 6.48 -13.33 3.33 -7.56 0.62 C-4.51 -0.39 -3.11 -0.38 0 0 Z M-6.5 11.12 C-6.85 11.62 -7.2 12.12 -7.56 12.62 C-6.5 13.91 -6.5 13.91 -4.06 13.72 C-3.05 13.71 -2.04 13.7 -1 13.69 C0.01 13.68 1.02 13.67 2.07 13.66 C2.85 13.65 3.63 13.64 4.44 13.62 C4.44 12.63 4.44 11.64 4.44 10.62 C0.85 8.83 -3.28 8.63 -6.5 11.12 Z " fill="#1D2059" transform="translate(709.5625,1091.375)"/>
<path d="M0 0 C4.5 3.71 7.14 7 8.74 12.62 C8.74 14.93 8.74 17.24 8.74 19.62 C0.16 19.62 -8.42 19.62 -17.26 19.62 C-15.7 23.5 -15.7 23.5 -13.51 24.87 C-10.61 25.83 -8.29 25.88 -5.26 25.62 C-4.27 24.96 -3.28 24.3 -2.26 23.62 C1.21 23.96 2.79 24.65 5.74 26.62 C5.43 29.55 4.76 30.6 2.66 32.73 C-1.04 35.12 -3.38 35.12 -7.76 35.05 C-9.05 35.05 -10.34 35.05 -11.66 35.05 C-17.04 34.4 -20.1 32.21 -23.51 28.12 C-24.01 27.53 -24.51 26.94 -25.02 26.34 C-27.79 22.49 -27.73 18.17 -27.26 13.62 C-24.94 6.78 -21.8 1.89 -15.26 -1.38 C-9.97 -3 -4.79 -2.94 0 0 Z M-14.2 9.12 C-14.55 9.61 -14.9 10.11 -15.26 10.62 C-14.2 11.9 -14.2 11.9 -11.75 11.71 C-10.74 11.7 -9.74 11.69 -8.7 11.68 C-7.68 11.67 -6.67 11.66 -5.63 11.65 C-4.85 11.64 -4.06 11.63 -3.26 11.62 C-3.26 10.63 -3.26 9.64 -3.26 8.62 C-6.85 6.82 -10.97 6.62 -14.2 9.12 Z " fill="#1D2059" transform="translate(957.2578125,1093.3828125)"/>
<path d="M0 0 C0 0.66 0 1.32 0 2 C0.61 2.26 1.23 2.51 1.86 2.77 C4.3 4.17 5 5.14 6.25 7.62 C6.59 8.26 6.92 8.89 7.27 9.54 C8 12 8 12 8 20 C-0.25 20 -8.5 20 -17 20 C-15.42 23.84 -15.42 23.84 -13.38 25.31 C-8.87 26.62 -4.39 25.46 0 24 C3.19 25.44 3.19 25.44 6 27 C5.88 28.75 5.88 28.75 5 31 C-0.69 35.6 -5.24 35.77 -12.35 35.59 C-17.87 34.7 -20.63 32.31 -24 28 C-24.66 27.22 -25.32 26.43 -26 25.62 C-28.23 19.77 -27.53 13.57 -25.11 7.86 C-22.47 3.44 -18.61 0.79 -14.06 -1.44 C-9.12 -2.35 -4.78 -1.59 0 0 Z M-13.94 9.5 C-14.29 9.99 -14.64 10.49 -15 11 C-13.94 12.29 -13.94 12.29 -11.5 12.1 C-10.49 12.09 -9.48 12.07 -8.44 12.06 C-7.43 12.05 -6.41 12.04 -5.37 12.04 C-4.59 12.02 -3.81 12.01 -3 12 C-3 11.01 -3 10.02 -3 9 C-6.59 7.21 -10.72 7.01 -13.94 9.5 Z " fill="#1D2059" transform="translate(297,1093)"/>
<path d="M0 0 C2.32 1.79 2.98 3.09 4.19 5.69 C5.18 6.02 6.17 6.35 7.19 6.69 C8.19 8.69 8.19 8.69 8.19 19.69 C0.93 20.02 -6.33 20.35 -13.81 20.69 C-14.14 22.01 -14.47 23.33 -14.81 24.69 C-13.21 24.91 -11.61 25.11 -10 25.31 C-8.66 25.49 -8.66 25.49 -7.29 25.66 C-4.56 25.92 -4.56 25.92 -1.81 23.69 C1.38 24.06 1.38 24.06 4.19 24.69 C4.19 25.35 4.19 26.01 4.19 26.69 C5.18 27.02 6.17 27.35 7.19 27.69 C5.67 30.78 4.06 32.77 1.19 34.69 C-5.08 35.84 -11.58 36.1 -17.53 33.5 C-21.3 30.8 -23.75 27.87 -25.81 23.69 C-26.6 17.98 -26.63 12.56 -24.31 7.25 C-17.02 -0.22 -10.44 -4.87 0 0 Z M-14.81 9.69 C-14.48 10.35 -14.15 11.01 -13.81 11.69 C-9.85 11.69 -5.89 11.69 -1.81 11.69 C-2.47 10.37 -3.13 9.05 -3.81 7.69 C-8.03 7.49 -10.98 7.89 -14.81 9.69 Z " fill="#1D2059" transform="translate(1039.8125,1093.3125)"/>
<path d="M0 0 C4.96 5.09 7.14 8.53 7.25 15.81 C7.17 21.53 6.55 25.05 2.73 29.46 C-2.03 33.8 -7.41 33.78 -13.61 33.55 C-18.66 32.73 -21.66 30.81 -25 27 C-28.4 22.22 -28.71 17.67 -28 12 C-26.46 5.67 -23.94 1.98 -18.5 -1.69 C-12.13 -5.03 -5.8 -4.46 0 0 Z M-16 8 C-18.65 11.09 -19.02 12.52 -18.81 16.62 C-18.18 20.1 -18.18 20.1 -16 23 C-12.38 24.21 -9.8 24.4 -6 24 C-3.3 22.13 -3.3 22.13 -2 19 C-1.9 15.15 -2.78 11.65 -4 8 C-8.3 5.28 -11.57 5.68 -16 8 Z " fill="#1D2059" transform="translate(1081,1095)"/>
<path d="M0 0 C3.18 2.68 5.48 5.13 7 9 C7.23 11.84 7.23 11.84 7.2 15.08 C7.19 16.24 7.18 17.4 7.18 18.59 C7.16 19.8 7.14 21.01 7.12 22.25 C7.12 23.47 7.11 24.69 7.1 25.95 C7.07 28.97 7.04 31.98 7 35 C5.52 35.03 4.04 35.05 2.56 35.06 C1.33 35.08 1.33 35.08 0.07 35.1 C-2 35 -2 35 -3 34 C-3.16 32.22 -3.25 30.44 -3.32 28.65 C-3.36 27.57 -3.4 26.49 -3.44 25.38 C-3.48 24.24 -3.52 23.11 -3.56 21.94 C-3.61 20.8 -3.65 19.66 -3.69 18.48 C-3.8 15.66 -3.9 12.83 -4 10 C-8.31 10.3 -8.31 10.3 -11.67 12.75 C-13.18 15.3 -13.42 16.83 -13.51 19.77 C-13.55 20.66 -13.58 21.54 -13.62 22.46 C-13.65 23.84 -13.65 23.84 -13.69 25.25 C-13.72 26.19 -13.76 27.12 -13.79 28.09 C-13.87 30.39 -13.94 32.69 -14 35 C-21.75 35.12 -21.75 35.12 -24 34 C-24.07 29.64 -24.13 25.28 -24.16 20.92 C-24.18 19.44 -24.2 17.95 -24.23 16.47 C-24.26 14.34 -24.28 12.21 -24.29 10.07 C-24.31 8.79 -24.32 7.51 -24.34 6.19 C-24 3 -24 3 -22.66 1.07 C-20.09 -0.59 -17.99 -0.24 -15 0 C-14.13 0.21 -13.27 0.41 -12.38 0.62 C-10 1.24 -10 1.24 -8.06 0 C-4.99 -1.49 -3.22 -0.99 0 0 Z " fill="#1D2059" transform="translate(209,1092)"/>
<path d="M0 0 C3.27 2.72 5.28 5.8 6 10 C6.08 11.95 6.11 13.91 6.1 15.86 C6.09 16.97 6.09 18.09 6.09 19.24 C6.08 20.4 6.07 21.56 6.06 22.75 C6.06 23.92 6.05 25.1 6.05 26.31 C6.04 29.21 6.02 32.1 6 35 C-0.15 35.1 -0.15 35.1 -2 35 C-4.12 32.88 -3.38 28.27 -3.5 25.31 C-3.72 20.13 -4.01 15.11 -5 10 C-7.94 10.18 -7.94 10.18 -11 11 C-12.92 13.88 -13.28 16.35 -13.41 19.77 C-13.47 21.1 -13.47 21.1 -13.53 22.46 C-13.58 23.84 -13.58 23.84 -13.62 25.25 C-13.68 26.65 -13.68 26.65 -13.74 28.09 C-13.84 30.39 -13.92 32.69 -14 35 C-15.48 35.03 -16.96 35.05 -18.44 35.06 C-19.26 35.07 -20.08 35.09 -20.93 35.1 C-23 35 -23 35 -24 34 C-24.24 29.62 -24.23 25.23 -24.24 20.84 C-24.25 18.64 -24.28 16.44 -24.31 14.23 C-24.32 12.84 -24.32 11.44 -24.33 10.04 C-24.34 8.76 -24.35 7.49 -24.36 6.17 C-24 3 -24 3 -22.63 1.08 C-20.32 -0.45 -18.72 -0.27 -16 0 C-15.34 0.21 -14.68 0.41 -14 0.62 C-11.9 1.21 -11.9 1.21 -9.69 0 C-5.97 -1.38 -3.8 -1.09 0 0 Z " fill="#1D2059" transform="translate(1118,1092)"/>
<path d="M0 0 C2.31 1.06 2.31 1.06 4 2 C4 2.66 4 3.32 4 4 C4.66 4 5.32 4 6 4 C8.36 10.48 8.23 16.6 8.12 23.44 C8.12 24.55 8.11 25.66 8.1 26.81 C8.07 29.54 8.04 32.27 8 35 C1.85 35.1 1.85 35.1 0 35 C-1.52 33.48 -1.2 32.04 -1.28 29.92 C-1.32 29.09 -1.36 28.26 -1.39 27.4 C-1.45 26.09 -1.45 26.09 -1.5 24.75 C-1.75 17.32 -1.75 17.32 -3 10 C-4.98 10.33 -6.96 10.66 -9 11 C-9.2 11.63 -9.41 12.25 -9.62 12.9 C-9.89 13.72 -10.16 14.53 -10.44 15.38 C-10.7 16.19 -10.97 17 -11.25 17.84 C-12 20 -12 20 -13 22 C-13.23 24.2 -13.41 26.41 -13.56 28.62 C-13.65 29.81 -13.73 31 -13.82 32.23 C-13.88 33.14 -13.94 34.06 -14 35 C-16.33 35.04 -18.67 35.04 -21 35 C-23.67 32.33 -22.23 24.68 -22.24 20.84 C-22.25 18.64 -22.28 16.44 -22.31 14.23 C-22.32 12.84 -22.32 11.44 -22.33 10.04 C-22.34 8.76 -22.35 7.49 -22.36 6.17 C-22 3 -22 3 -20.64 1.08 C-18.31 -0.46 -16.73 -0.34 -14 0 C-13.01 0.66 -12.02 1.32 -11 2 C-10.11 1.48 -9.23 0.97 -8.31 0.44 C-4.72 -1.12 -3.61 -1.24 0 0 Z " fill="#1D2059" transform="translate(565,1092)"/>
<path d="M0 0 C2.94 0.19 2.94 0.19 3.94 1.19 C4.06 2.62 4.12 4.05 4.15 5.48 C4.18 6.36 4.21 7.24 4.23 8.14 C4.29 9.99 4.33 11.84 4.37 13.69 C4.57 20.44 4.57 20.44 7.94 26.19 C10.52 26.69 10.52 26.69 12.94 26.19 C14.58 24.55 14.1 22.64 14.15 20.38 C14.19 18.92 14.19 18.92 14.23 17.43 C14.29 15.36 14.33 13.29 14.37 11.22 C14.41 9.76 14.41 9.76 14.46 8.26 C14.48 7.36 14.5 6.46 14.52 5.53 C15.02 2.75 15.65 1.82 17.94 0.19 C21.12 0 21.12 0 23.94 0.19 C26.03 4.37 25.17 9.84 25.19 14.44 C25.21 15.57 25.23 16.7 25.25 17.87 C25.3 28.38 25.3 28.38 21.94 33.19 C21.53 33.8 21.13 34.4 20.71 35.03 C16.19 37.98 9.12 36.8 3.94 36.19 C0.07 34.43 -1.72 31.7 -4.06 28.19 C-5.18 22.6 -5.25 17.05 -5.25 11.38 C-5.26 10.52 -5.27 9.66 -5.29 8.78 C-5.29 7.96 -5.29 7.14 -5.29 6.29 C-5.3 5.55 -5.3 4.81 -5.31 4.05 C-4.85 0.53 -3.31 0.2 0 0 Z " fill="#1D2059" transform="translate(659.0625,1091.8125)"/>
<path d="M0 0 C0.99 0 1.97 0.01 2.99 0.01 C4.02 0.02 5.05 0.03 6.12 0.04 C7.68 0.04 7.68 0.04 9.27 0.05 C11.84 0.06 14.42 0.08 16.99 0.1 C18.13 4.8 18.13 4.8 16.92 7.49 C16.39 8.29 15.85 9.09 15.3 9.91 C11.81 15.36 8.41 20.71 6.99 27.1 C7.7 27.09 8.41 27.07 9.14 27.06 C10.06 27.05 10.98 27.04 11.93 27.04 C12.85 27.02 13.76 27.01 14.71 27 C16.99 27.1 16.99 27.1 17.99 28.1 C17.99 30.41 17.99 32.72 17.99 35.1 C9.41 35.1 0.83 35.1 -8.01 35.1 C-8.01 31.76 -7.33 30.4 -5.82 27.47 C-5.37 26.59 -4.92 25.71 -4.45 24.8 C-2.71 21.53 -0.89 18.31 0.98 15.11 C1.99 13.11 2.54 11.28 2.99 9.1 C2.05 9.13 2.05 9.13 1.09 9.17 C-0.13 9.2 -0.13 9.2 -1.38 9.22 C-2.19 9.25 -3.01 9.27 -3.84 9.29 C-6.01 9.1 -6.01 9.1 -8.01 7.1 C-7.76 4.04 -7.76 4.04 -7.01 1.1 C-4.5 -0.15 -2.8 -0.02 0 0 Z " fill="#1D2059" transform="translate(852.0078125,1091.90234375)"/>
<path d="M0 0 C3.31 0.19 3.31 0.19 7 1 C8.75 3.12 8.75 3.12 10 6 C10.84 7.79 10.84 7.79 11.69 9.62 C13 13 13 13 13 16 C13.99 16 14.98 16 16 16 C17.98 11.05 19.96 6.1 22 1 C29 0 29 0 32 1 C31.52 5.69 30.07 9.36 28.11 13.58 C26.99 16.03 25.98 18.5 25 21 C23.13 25.73 21.1 30.37 19 35 C16.36 35 13.72 35 11 35 C7.95 29.23 5.53 23.37 3.25 17.26 C1.8 13.48 0.18 9.8 -1.5 6.12 C-2 4 -2 4 -1.1 1.72 C-0.74 1.15 -0.37 0.59 0 0 Z " fill="#1D2059" transform="translate(236,1092)"/>
<path d="M0 0 C2.94 2.06 2.94 2.06 5 4 C4.25 8.75 4.25 8.75 2 11 C-1.62 10.62 -1.62 10.62 -5 10 C-5 10.66 -5 11.32 -5 12 C-4.09 12.41 -3.19 12.83 -2.25 13.25 C1.99 15.53 4.46 17.39 6 22 C6.35 27.42 6.39 30.53 3 35 C1.16 36.84 -1.65 36.26 -4.12 36.31 C-10.04 36.29 -13.29 35.51 -18 32 C-16.93 29.08 -16.22 27.22 -14 25 C-11.4 25.24 -11.4 25.24 -8.38 25.88 C-7.37 26.08 -6.37 26.28 -5.34 26.49 C-4.57 26.66 -3.79 26.83 -3 27 C-5.7 23.31 -8.09 21.29 -12 19 C-15.43 16.26 -16.83 14.93 -17.62 10.56 C-16.83 6.04 -15.3 4.15 -12 1 C-7.85 -1.51 -4.63 -1.16 0 0 Z " fill="#1D2059" transform="translate(346,1092)"/>
<path d="M0 0 C3 0.25 3 0.25 5 2.25 C5.18 4.9 5.23 7.45 5.2 10.1 C5.19 10.88 5.19 11.65 5.19 12.45 C5.18 14.92 5.15 17.4 5.12 19.88 C5.11 21.55 5.11 23.23 5.1 24.91 C5.08 29.02 5.04 33.14 5 37.25 C8.63 37.25 12.26 37.25 16 37.25 C17.61 40.46 17.06 43.69 17 47.25 C13.52 47.28 10.04 47.3 6.56 47.31 C5.07 47.33 5.07 47.33 3.55 47.34 C2.61 47.34 1.66 47.34 0.69 47.35 C-0.18 47.35 -1.06 47.36 -1.96 47.36 C-4 47.25 -4 47.25 -5 46.25 C-5.1 44.88 -5.14 43.5 -5.15 42.13 C-5.15 41.25 -5.16 40.38 -5.16 39.48 C-5.17 38.53 -5.17 37.58 -5.17 36.6 C-5.17 35.63 -5.17 34.66 -5.18 33.66 C-5.18 31.6 -5.19 29.54 -5.19 27.49 C-5.19 24.33 -5.21 21.17 -5.22 18.02 C-5.23 16.02 -5.23 14.03 -5.23 12.04 C-5.24 11.09 -5.24 10.14 -5.25 9.16 C-5.25 8.28 -5.25 7.4 -5.24 6.5 C-5.24 5.73 -5.25 4.95 -5.25 4.15 C-4.79 0.66 -3.3 0.28 0 0 Z " fill="#1D2059" transform="translate(994,1079.75)"/>
<path d="M0 0 C1.98 0.38 1.98 0.38 4.11 -0.31 C6.79 -0.96 8.5 0.11 10.92 1.25 C9.98 5.39 9.38 6.93 5.86 9.44 C4.41 10.34 4.41 10.34 2.92 11.25 C1.99 14.04 1.73 16.02 1.61 18.92 C1.56 19.81 1.52 20.71 1.48 21.63 C1.42 23.02 1.42 23.02 1.36 24.44 C1.32 25.38 1.27 26.32 1.23 27.29 C1.12 29.61 1.02 31.93 0.92 34.25 C-6.83 34.38 -6.83 34.38 -9.08 33.25 C-9.15 28.89 -9.21 24.53 -9.24 20.17 C-9.26 18.69 -9.28 17.21 -9.3 15.72 C-9.34 13.59 -9.36 11.46 -9.37 9.33 C-9.39 8.05 -9.4 6.76 -9.42 5.44 C-9.08 2.25 -9.08 2.25 -7.81 0.29 C-5.19 -1.28 -2.89 -0.5 0 0 Z " fill="#1D2059" transform="translate(317.078125,1092.74609375)"/>
<path d="M0 0 C1.99 0.23 3.99 0.47 5.97 0.78 C8.13 1.12 8.13 1.12 10.75 0.44 C13.53 -0.1 14.65 0.52 17 2 C15.14 7.2 14.1 9.45 9 12 C7.8 14.41 7.8 16.1 7.68 18.79 C7.62 20.2 7.62 20.2 7.56 21.64 C7.5 23.12 7.5 23.12 7.44 24.62 C7.39 25.62 7.35 26.61 7.31 27.63 C7.2 30.09 7.1 32.54 7 35 C0.85 35.1 0.85 35.1 -1 35 C-2.91 33.09 -2.16 29.58 -2.17 26.97 C-2.17 26.27 -2.17 25.56 -2.18 24.84 C-2.18 23.35 -2.19 21.85 -2.19 20.36 C-2.19 18.08 -2.21 15.79 -2.22 13.5 C-2.23 12.05 -2.23 10.61 -2.23 9.16 C-2.24 8.47 -2.24 7.79 -2.25 7.08 C-2.23 2.23 -2.23 2.23 0 0 Z " fill="#1D2059" transform="translate(580,1092)"/>
<path d="M0 0 C1.65 -0.03 3.29 -0.05 4.94 -0.06 C5.85 -0.07 6.77 -0.09 7.71 -0.1 C10 0 10 0 11 1 C11.09 3.45 11.12 5.87 11.1 8.32 C11.1 9.05 11.09 9.78 11.09 10.53 C11.09 12.88 11.08 15.22 11.06 17.56 C11.06 19.15 11.05 20.73 11.05 22.32 C11.04 26.21 11.02 30.11 11 34 C3.25 34.12 3.25 34.12 1 33 C0.98 28.76 0.96 24.53 0.95 20.29 C0.94 18.85 0.93 17.41 0.92 15.97 C0.91 13.9 0.91 11.83 0.9 9.76 C0.9 8.51 0.89 7.27 0.89 5.98 C1 3 1 3 2 1 C1.34 0.67 0.68 0.34 0 0 Z " fill="#1D2059" transform="translate(597,1093)"/>
<path d="M0 0 C6.15 -0.1 6.15 -0.1 8 0 C9 1 9 1 9.11 4.14 C9.11 5.53 9.11 6.93 9.1 8.32 C9.1 9.05 9.09 9.78 9.09 10.53 C9.09 12.88 9.08 15.22 9.06 17.56 C9.06 19.15 9.05 20.73 9.05 22.32 C9.04 26.21 9.02 30.11 9 34 C1.25 34.12 1.25 34.12 -1 33 C-1.02 28.62 -1.04 24.24 -1.05 19.87 C-1.06 18.38 -1.07 16.89 -1.08 15.4 C-1.09 13.26 -1.09 11.12 -1.1 8.98 C-1.1 7.69 -1.11 6.4 -1.11 5.07 C-1 2 -1 2 0 0 Z " fill="#1D2059" transform="translate(222,1093)"/>
<path d="M0 0 C2.94 0.19 2.94 0.19 3.94 1.19 C4.03 3.71 4.05 6.2 4.04 8.72 C4.03 9.48 4.03 10.23 4.03 11.01 C4.03 13.42 4.01 15.84 4 18.25 C3.99 19.88 3.99 21.52 3.99 23.15 C3.98 27.16 3.96 31.18 3.94 35.19 C-2.21 35.29 -2.21 35.29 -4.06 35.19 C-5.98 33.27 -5.23 29.77 -5.23 27.16 C-5.23 26.46 -5.24 25.75 -5.24 25.03 C-5.25 23.53 -5.25 22.04 -5.25 20.55 C-5.25 18.26 -5.27 15.98 -5.29 13.69 C-5.29 12.24 -5.29 10.79 -5.29 9.35 C-5.3 8.66 -5.31 7.97 -5.31 7.27 C-5.29 2.55 -5.23 0.32 0 0 Z " fill="#1D2059" transform="translate(794.0625,1091.8125)"/>
<path d="M0 0 C2.64 0 5.28 0 8 0 C8 11.22 8 22.44 8 34 C5.36 34 2.72 34 0 34 C-1.68 32.32 -1.13 30.27 -1.14 28.03 C-1.14 27.34 -1.13 26.65 -1.13 25.94 C-1.13 25.23 -1.13 24.52 -1.14 23.8 C-1.14 22.3 -1.13 20.8 -1.13 19.31 C-1.13 17.01 -1.13 14.71 -1.14 12.41 C-1.14 10.96 -1.13 9.51 -1.13 8.06 C-1.13 7.37 -1.14 6.68 -1.14 5.97 C-1.11 1.11 -1.11 1.11 0 0 Z " fill="#1D2059" transform="translate(358,1093)"/>
<path d="M0 0 C0.33 0 0.66 0 1 0 C1 98.34 1 196.68 1 298 C0.67 298 0.34 298 0 298 C0 199.66 0 101.32 0 0 Z " fill="#FCFCFC" transform="translate(403,174)"/>
<path d="M0 0 C57.09 0 114.18 0 173 0 C173 0.33 173 0.66 173 1 C115.91 1 58.82 1 0 1 C0 0.67 0 0.34 0 0 Z " fill="#FCFCFC" transform="translate(626,959)"/>
<path d="M0 0 C0.33 0 0.66 0 1 0 C1 51.48 1 102.96 1 156 C0.67 156 0.34 156 0 156 C0 104.52 0 53.04 0 0 Z " fill="#FCFCFC" transform="translate(556,896)"/>
<path d="M0 0 C0.99 0.66 1.98 1.32 3 2 C2.19 3.94 2.19 3.94 1 6 C0.01 6.33 -0.98 6.66 -2 7 C-3.21 9 -3.21 9 -4 11 C-4.66 11 -5.32 11 -6 11 C-6.33 11.99 -6.66 12.98 -7 14 C-9.31 14 -11.62 14 -14 14 C-12.87 6.09 -8.71 -1.11 0 0 Z " fill="#1D2059" transform="translate(1079,1074)"/>
<path d="M0 0 C-0.55 3.96 -2.44 5.93 -5.19 8.75 C-6.32 9.95 -6.32 9.95 -7.48 11.17 C-10.55 13.4 -12.29 13.37 -16 13 C-16 9.37 -15 7.95 -13.12 4.88 C-12.59 3.99 -12.06 3.1 -11.51 2.18 C-8.38 -2.34 -4.91 -0.71 0 0 Z " fill="#1D2059" transform="translate(805,1075)"/>
<path d="M0 0 C2.31 3.47 2.42 4.92 2 9 C0.88 10.88 0.88 10.88 -1 12 C-4 12.44 -4 12.44 -7 12 C-8.94 10.44 -8.94 10.44 -10 8 C-9.94 4.38 -9.94 4.38 -9 1 C-6.05 -1.53 -3.57 -1.22 0 0 Z " fill="#1D2059" transform="translate(230,1080)"/>
<path d="M0 0 C2.31 3.47 2.51 4.92 2 9 C-0.11 11.34 -1.47 11.91 -4.56 12.44 C-7 12 -7 12 -8.88 10.44 C-10.5 6.92 -10.02 4.68 -9 1 C-6.05 -1.53 -3.57 -1.22 0 0 Z " fill="#1D2059" transform="translate(607,1080)"/>
<path d="M0 0 C1.59 1.59 1.21 3.25 1.25 5.44 C1.29 6.64 1.29 6.64 1.33 7.87 C1.22 8.57 1.11 9.28 1 10 C-2.21 12.14 -3.27 12.65 -7 12 C-9.25 9.38 -10.02 7.85 -9.94 4.38 C-7.94 -0.68 -5.01 -1.63 0 0 Z " fill="#1D2059" transform="translate(365,1080)"/>
<path d="M0 0 C0.33 0 0.66 0 1 0 C1 17.16 1 34.32 1 52 C0.67 52 0.34 52 0 52 C0 34.84 0 17.68 0 0 Z " fill="#1D2059" transform="translate(141,834)"/>
<path d="M0 0 C0.33 0 0.66 0 1 0 C1 15.51 1 31.02 1 47 C0.67 47 0.34 47 0 47 C0 31.49 0 15.98 0 0 Z " fill="#FCFCFC" transform="translate(487,1081)"/>
<path d="M0 0 C0.33 0 0.66 0 1 0 C1 15.18 1 30.36 1 46 C0.67 46 0.34 46 0 46 C0 30.82 0 15.64 0 0 Z " fill="#FCFCFC" transform="translate(925,1081)"/>
<path d="M0 0 C0.33 0 0.66 0 1 0 C1 11.55 1 23.1 1 35 C0.67 35 0.34 35 0 35 C0 23.45 0 11.9 0 0 Z " fill="#FCFCFC" transform="translate(799,1093)"/>
<path d="M0 0 C0.33 0 0.66 0 1 0 C1 11.22 1 22.44 1 34 C0.67 34 0.34 34 0 34 C0 22.78 0 11.56 0 0 Z " fill="#FCFCFC" transform="translate(839,1094)"/>
<path d="M0 0 C0.33 0 0.66 0 1 0 C1 10.89 1 21.78 1 33 C0.67 33 0.34 33 0 33 C0 22.11 0 11.22 0 0 Z " fill="#FCFCFC" transform="translate(157,1082)"/>
<path d="M0 0 C0.33 0 0.66 0 1 0 C1 9.57 1 19.14 1 29 C0.67 29 0.34 29 0 29 C0 19.43 0 9.86 0 0 Z " fill="#FCFCFC" transform="translate(799,930)"/>
<path d="M0 0 C0.33 0 0.66 0 1 0 C1 7.26 1 14.52 1 22 C0.67 22 0.34 22 0 22 C0 14.74 0 7.48 0 0 Z " fill="#FCFCFC" transform="translate(335,940)"/>
<path d="M0 0 C6.93 0 13.86 0 21 0 C21 0.33 21 0.66 21 1 C14.07 1 7.14 1 0 1 C0 0.67 0 0.34 0 0 Z " fill="#1D2059" transform="translate(394,831)"/>
<path d="M0 0 C0.33 0 0.66 0 1 0 C1 6.27 1 12.54 1 19 C0.67 19 0.34 19 0 19 C0 12.73 0 6.46 0 0 Z " fill="#FCFCFC" transform="translate(664,1094)"/>
<path d="M0 0 C0.33 0 0.66 0 1 0 C1 4.62 1 9.24 1 14 C0.01 14.5 0.01 14.5 -1 15 C-0.67 10.05 -0.34 5.1 0 0 Z " fill="#E0E0E7" transform="translate(570,409)"/>
<path d="M0 0 C0.33 0 0.66 0 1 0 C1 4.62 1 9.24 1 14 C0.67 14 0.34 14 0 14 C0 9.38 0 4.76 0 0 Z " fill="#FCFCFC" transform="translate(552,1114)"/>
<path d="M0 0 C0.33 0 0.66 0 1 0 C1 3.63 1 7.26 1 11 C0.67 11 0.34 11 0 11 C0 7.37 0 3.74 0 0 Z " fill="#1D2059" transform="translate(395,1082)"/>
<path d="M0 0 C3.63 0 7.26 0 11 0 C11 0.33 11 0.66 11 1 C7.37 1 3.74 1 0 1 C0 0.67 0 0.34 0 0 Z " fill="#FCFCFC" transform="translate(695,1057)"/>
<path d="M0 0 C3.63 0 7.26 0 11 0 C11 0.33 11 0.66 11 1 C7.37 1 3.74 1 0 1 C0 0.67 0 0.34 0 0 Z " fill="#FCFCFC" transform="translate(667,1057)"/>
<path d="M0 0 C0.33 0 0.66 0 1 0 C1 3.3 1 6.6 1 10 C0.67 10 0.34 10 0 10 C0 6.7 0 3.4 0 0 Z " fill="#FCFCFC" transform="translate(418,928)"/>
<path d="M0 0 C2.97 0 5.94 0 9 0 C9 0.33 9 0.66 9 1 C6.03 1 3.06 1 0 1 C0 0.67 0 0.34 0 0 Z " fill="#FCFCFC" transform="translate(639,1140)"/>
<path d="M0 0 C2.97 0 5.94 0 9 0 C9 0.33 9 0.66 9 1 C6.03 1 3.06 1 0 1 C0 0.67 0 0.34 0 0 Z " fill="#FCFCFC" transform="translate(159,1129)"/>
<path d="M0 0 C0.33 0 0.66 0 1 0 C1 2.97 1 5.94 1 9 C0.67 9 0.34 9 0 9 C0 6.03 0 3.06 0 0 Z " fill="#1D2059" transform="translate(167,1104)"/>
<path d="M0 0 C0.33 0 0.66 0 1 0 C1 2.64 1 5.28 1 8 C0.67 8 0.34 8 0 8 C0 5.36 0 2.72 0 0 Z " fill="#FCFCFC" transform="translate(1049,1106)"/>
<path d="M0 0 C0.33 0 0.66 0 1 0 C1 2.64 1 5.28 1 8 C0.67 8 0.34 8 0 8 C0 5.36 0 2.72 0 0 Z " fill="#FCFCFC" transform="translate(1038,1001)"/>
<path d="M0 0 C1.98 0 3.96 0 6 0 C6 0.33 6 0.66 6 1 C4.02 1 2.04 1 0 1 C0 0.67 0 0.34 0 0 Z " fill="#FCFCFC" transform="translate(1030,1129)"/>
<path d="M0 0 C1.98 0 3.96 0 6 0 C6 0.33 6 0.66 6 1 C4.02 1 2.04 1 0 1 C0 0.67 0 0.34 0 0 Z " fill="#FCFCFC" transform="translate(946,1129)"/>
<path d="M0 0 C1.98 0 3.96 0 6 0 C6 0.33 6 0.66 6 1 C4.02 1 2.04 1 0 1 C0 0.67 0 0.34 0 0 Z " fill="#FCFCFC" transform="translate(705,1129)"/>
<path d="M0 0 C1.98 0 3.96 0 6 0 C6 0.33 6 0.66 6 1 C4.02 1 2.04 1 0 1 C0 0.67 0 0.34 0 0 Z " fill="#FCFCFC" transform="translate(667,1129)"/>
<path d="M0 0 C1.98 0 3.96 0 6 0 C6 0.33 6 0.66 6 1 C4.02 1 2.04 1 0 1 C0 0.67 0 0.34 0 0 Z " fill="#FCFCFC" transform="translate(286,1129)"/>
<path d="M0 0 C0.33 0 0.66 0 1 0 C1 1.98 1 3.96 1 6 C0.67 6 0.34 6 0 6 C0 4.02 0 2.04 0 0 Z " fill="#FCFCFC" transform="translate(367,1083)"/>
<path d="M0 0 C0.33 0 0.66 0 1 0 C1 1.98 1 3.96 1 6 C0.67 6 0.34 6 0 6 C0 4.02 0 2.04 0 0 Z " fill="#FCFCFC" transform="translate(868,927)"/>
<path d="M0 0 C1.65 0 3.3 0 5 0 C5 0.33 5 0.66 5 1 C3.35 1 1.7 1 0 1 C0 0.67 0 0.34 0 0 Z " fill="#FCFCFC" transform="translate(1069,1129)"/>
<path d="M0 0 C1.65 0 3.3 0 5 0 C5 0.33 5 0.66 5 1 C3.35 1 1.7 1 0 1 C0 0.67 0 0.34 0 0 Z " fill="#FCFCFC" transform="translate(904,1129)"/>
<path d="M0 0 C1.65 0 3.3 0 5 0 C5 0.33 5 0.66 5 1 C3.35 1 1.7 1 0 1 C0 0.67 0 0.34 0 0 Z " fill="#FCFCFC" transform="translate(818,1129)"/>
<path d="M0 0 C1.65 0 3.3 0 5 0 C5 0.33 5 0.66 5 1 C3.35 1 1.7 1 0 1 C0 0.67 0 0.34 0 0 Z " fill="#FCFCFC" transform="translate(627,1129)"/>
<path d="M0 0 C1.65 0 3.3 0 5 0 C5 0.33 5 0.66 5 1 C3.35 1 1.7 1 0 1 C0 0.67 0 0.34 0 0 Z " fill="#FCFCFC" transform="translate(466,1129)"/>
<path d="M0 0 C1.65 0 3.3 0 5 0 C5 0.33 5 0.66 5 1 C3.35 1 1.7 1 0 1 C0 0.67 0 0.34 0 0 Z " fill="#FCFCFC" transform="translate(385,1129)"/>
<path d="M0 0 C1.65 0 3.3 0 5 0 C5 0.33 5 0.66 5 1 C3.35 1 1.7 1 0 1 C0 0.67 0 0.34 0 0 Z " fill="#FCFCFC" transform="translate(338,1129)"/>
<path d="M0 0 C0.33 0 0.66 0 1 0 C1 1.65 1 3.3 1 5 C0.67 5 0.34 5 0 5 C0 3.35 0 1.7 0 0 Z " fill="#FCFCFC" transform="translate(868,947)"/>
<path d="M0 0 C0.33 0 0.66 0 1 0 C1 1.65 1 3.3 1 5 C0.67 5 0.34 5 0 5 C0 3.35 0 1.7 0 0 Z " fill="#FCFCFC" transform="translate(784,442)"/>
<path d="M0 0 C4 1 4 1 4 1 Z " fill="#FCFCFC" transform="translate(426,1129)"/>
<path d="M0 0 C1 4 1 4 1 4 Z " fill="#FCFCFC" transform="translate(306,1109)"/>
<path d="M0 0 C4 1 4 1 4 1 Z " fill="#FCFCFC" transform="translate(692,875)"/>
<path d="M0 0 C4 1 4 1 4 1 Z " fill="#FCFCFC" transform="translate(675,875)"/>
<path d="M0 0 C1 4 1 4 1 4 Z " fill="#FCFCFC" transform="translate(781,464)"/>
<path d="" fill="#FCFCFC" transform="translate(0,0)"/>
<path d="" fill="#1D2059" transform="translate(0,0)"/>
<path d="M0 0 C3 1 3 1 3 1 Z " fill="#FCFCFC" transform="translate(895,1053)"/>
<path d="M0 0 C3 1 3 1 3 1 Z " fill="#FCFCFC" transform="translate(273,1053)"/>
<path d="M0 0 C3 1 3 1 3 1 Z " fill="#FCFCFC" transform="translate(456,879)"/>
<path d="" fill="#FCFCFC" transform="translate(0,0)"/>
<path d="M0 0 C2 1 2 1 2 1 Z " fill="#FCFCFC" transform="translate(346,1104)"/>
<path d="" fill="#FCFCFC" transform="translate(0,0)"/>
<path d="" fill="#1D2059" transform="translate(0,0)"/>
<path d="M0 0 C2 1 2 1 2 1 Z " fill="#FCFCFC" transform="translate(936,1053)"/>
<path d="" fill="#FCFCFC" transform="translate(0,0)"/>
<path d="" fill="#FCFCFC" transform="translate(0,0)"/>
<path d="" fill="#FCFCFC" transform="translate(0,0)"/>
<path d="M0 0 C2 1 2 1 2 1 Z " fill="#FCFCFC" transform="translate(470,879)"/>
<path d="" fill="#FCFCFC" transform="translate(0,0)"/>
<path d="" fill="#FCFCFC" transform="translate(0,0)"/>
<path d="" fill="#FCFCFC" transform="translate(0,0)"/>
<path d="" fill="#FCFCFC" transform="translate(0,0)"/>
<path d="" fill="#FCFCFC" transform="translate(0,0)"/>
<path d="" fill="#FCFCFC" transform="translate(0,0)"/>
<path d="" fill="#FCFCFC" transform="translate(0,0)"/>
<path d="" fill="#FCFCFC" transform="translate(0,0)"/>
<path d="" fill="#FCFCFC" transform="translate(0,0)"/>
<path d="" fill="#FCFCFC" transform="translate(0,0)"/>
<path d="" fill="#FCFCFC" transform="translate(0,0)"/>
<path d="" fill="#FCFCFC" transform="translate(0,0)"/>
<path d="" fill="#FCFCFC" transform="translate(0,0)"/>
<path d="" fill="#FCFCFC" transform="translate(0,0)"/>
<path d="" fill="#FCFCFC" transform="translate(0,0)"/>
<path d="" fill="#FCFCFC" transform="translate(0,0)"/>
<path d="" fill="#1D2059" transform="translate(0,0)"/>
<path d="" fill="#1D2059" transform="translate(0,0)"/>
<path d="" fill="#FCFCFC" transform="translate(0,0)"/>
<path d="" fill="#FCFCFC" transform="translate(0,0)"/>
<path d="" fill="#FCFCFC" transform="translate(0,0)"/>
<path d="" fill="#FCFCFC" transform="translate(0,0)"/>
<path d="" fill="#1D2059" transform="translate(0,0)"/>
<path d="" fill="#1D2059" transform="translate(0,0)"/>
<path d="" fill="#1D2059" transform="translate(0,0)"/>
<path d="" fill="#FCFCFC" transform="translate(0,0)"/>
<path d="" fill="#FCFCFC" transform="translate(0,0)"/>
<path d="" fill="#FCFCFC" transform="translate(0,0)"/>
<path d="" fill="#FCFCFC" transform="translate(0,0)"/>
<path d="" fill="#FCFCFC" transform="translate(0,0)"/>
<path d="" fill="#FCFCFC" transform="translate(0,0)"/>
<path d="" fill="#1D2059" transform="translate(0,0)"/>
<path d="" fill="#FCFCFC" transform="translate(0,0)"/>
<path d="" fill="#FCFCFC" transform="translate(0,0)"/>
<path d="" fill="#FCFCFC" transform="translate(0,0)"/>
<path d="" fill="#FCFCFC" transform="translate(0,0)"/>
<path d="" fill="#FCFCFC" transform="translate(0,0)"/>
<path d="" fill="#FCFCFC" transform="translate(0,0)"/>
<path d="" fill="#FCFCFC" transform="translate(0,0)"/>
<path d="" fill="#FCFCFC" transform="translate(0,0)"/>
<path d="" fill="#FCFCFC" transform="translate(0,0)"/>
</svg>
